<?xml version="1.0" encoding="UTF-8"?>
<svg width="134" height="289" xmlns="http://www.w3.org/2000/svg" xmlns:xlink="http://www.w3.org/1999/xlink">
 <!-- Created with SVG-edit - http://svg-edit.googlecode.com/ -->
 <defs>
  <symbol viewBox="0 0 339.601 728" height="728px" width="339.601px" y="0px" x="0px" xmlns:xlink="http://www.w3.org/1999/xlink" id="svg_4">
   <rect height="30.572" width="6.904" stroke-miterlimit="3.864" stroke-width="2" stroke="#000000" fill="none" y="51.725" x="65.253"/>
   <rect height="59.178" width="9.863" fill="#FFFFFF" y="36.928" x="57.36"/>
   <rect height="59.178" width="9.863" stroke-miterlimit="3.864" stroke-width="2" stroke="#000000" fill="none" y="36.928" x="57.36"/>
   <path d="m59.609001,122.182999c0,6.537003 -5.296001,11.835999 -11.834,11.835999l-34.954001,0c-6.535,0 -11.835,-5.298996 -11.835,-11.835999l0,-109.356998c0,-6.54 5.3,-11.836 11.835,-11.836l34.954001,0c6.537998,0 11.834,5.296 11.834,11.836l0,109.356998z" fill="#FFFFFF"/>
   <path d="m59.609001,122.182999c0,6.537003 -5.296001,11.835999 -11.834,11.835999l-34.954001,0c-6.535,0 -11.835,-5.298996 -11.835,-11.835999l0,-109.356998c0,-6.54 5.3,-11.836 11.835,-11.836l34.954001,0c6.537998,0 11.834,5.296 11.834,11.836l0,109.356998z" stroke-miterlimit="3.864" stroke-width="2" stroke="#000000" fill="none"/>
   <g>
    <path d="m92.622002,52.708c2.583,0 4.683998,2.098999 4.683998,4.686001c0,2.586998 -2.100998,4.682999 -4.683998,4.682999c-2.589005,0 -4.686005,-2.096001 -4.686005,-4.682999c0.000999,-2.587002 2.097,-4.686001 4.686005,-4.686001" fill="#FFFFFF"/>
    <path d="m92.622002,52.708c2.583,0 4.683998,2.098999 4.683998,4.686001c0,2.586998 -2.100998,4.682999 -4.683998,4.682999c-2.589005,0 -4.686005,-2.096001 -4.686005,-4.682999c0.000999,-2.587002 2.097,-4.686001 4.686005,-4.686001z" stroke-miterlimit="3.864" stroke-width="2" stroke="#000000" fill="none"/>
    <path d="m93.853996,79.833c2.724007,0 4.935005,2.205002 4.935005,4.931c0,2.723999 -2.210999,4.931 -4.935005,4.931c-2.724998,0 -4.933998,-2.207001 -4.933998,-4.931c0.000999,-2.726997 2.209999,-4.931 4.933998,-4.931" fill="#FFFFFF"/>
    <path d="m93.853996,79.833c2.724007,0 4.935005,2.205002 4.935005,4.931c0,2.723999 -2.210999,4.931 -4.935005,4.931c-2.724998,0 -4.933998,-2.207001 -4.933998,-4.931c0.000999,-2.726997 2.209999,-4.931 4.933998,-4.931z" stroke-miterlimit="3.864" stroke-width="2" stroke="#000000" fill="none"/>
    <rect height="4.934" width="46.354" fill="#FFFFFF" y="73.912" x="82.513"/>
    <rect height="4.934" width="46.354" stroke-miterlimit="3.864" stroke-width="2" stroke="#000000" fill="none" y="73.912" x="82.513"/>
    <rect height="15.286" width="6.408" fill="#FFFFFF" y="68.984" x="129.857"/>
    <rect height="15.286" width="6.408" stroke-miterlimit="3.864" stroke-width="2" stroke="#000000" fill="none" y="68.984" x="129.857"/>
    <rect height="12.329" width="18.246" fill="#FFFFFF" y="70.461" x="135.279"/>
    <rect height="12.329" width="18.246" stroke-miterlimit="3.864" stroke-width="2" stroke="#000000" fill="none" y="70.461" x="135.279"/>
    <rect height="4.931" width="41.426" fill="#FFFFFF" y="88.708" x="82.019"/>
    <rect height="4.931" width="41.426" stroke-miterlimit="3.864" stroke-width="2" stroke="#000000" fill="none" y="88.708" x="82.019"/>
    <path d="m65.746002,37.422001c0,0 42.901001,4.438 49.808998,5.424c6.901001,0.982998 17.258003,15.779999 17.258003,15.779999l0,8.874001c0,0 -15.781006,-17.75 -19.725006,-19.723999c-3.945999,-1.973 -48.821999,-5.424 -48.821999,-5.424l1.480003,-4.93z" fill="#FFFFFF" clip-rule="evenodd" fill-rule="evenodd"/>
    <path d="m65.746002,37.422001c0,0 42.901001,4.438 49.808998,5.424c6.901001,0.982998 17.258003,15.779999 17.258003,15.779999l0,8.874001c0,0 -15.781006,-17.75 -19.725006,-19.723999c-3.945999,-1.973 -48.821999,-5.424 -48.821999,-5.424l1.480003,-4.93z" stroke-miterlimit="3.864" stroke-width="2" stroke="#000000" fill="none"/>
    <path d="m76.841003,187.335007c3.677994,0 6.656998,2.981003 6.656998,6.660004c0,3.675003 -2.979004,6.656998 -6.656998,6.656998c-3.677002,0 -6.657005,-2.981003 -6.657005,-6.656998c0,-3.678009 2.980003,-6.660004 6.657005,-6.660004" fill="#FFFFFF"/>
    <circle r="6.658" cy="193.994" cx="76.841" stroke-miterlimit="3.864" stroke-width="2" stroke="#000000" fill="none"/>
    <path d="m77.582001,65.037003c6.532997,0 11.834,5.297997 11.834,11.834999c0,6.540001 -5.301003,11.835999 -11.834,11.835999c-6.540001,0 -11.835999,-5.295998 -11.835999,-11.835999c0,-6.537003 5.295998,-11.834999 11.835999,-11.834999" fill="#FFFFFF"/>
    <path d="m60.021,155.276993l22.534,-3.973999l4.931,27.972l-22.533997,3.97699l-4.931004,-27.974991zm1.015999,-64.825996l6.266003,-0.770996l7.885002,64.219994l-6.266006,0.770004l-7.884998,-64.219002zm16.545002,-25.413994c6.532997,0 11.834,5.297997 11.834,11.834999c0,6.540001 -5.301003,11.835999 -11.834,11.835999c-6.540001,0 -11.835999,-5.295998 -11.835999,-11.835999c0,-6.537003 5.295998,-11.834999 11.835999,-11.834999z" stroke-miterlimit="3.864" stroke-width="2" stroke="#000000" fill="none"/>
    <rect height="30.572" width="6.905" fill="#FFFFFF" y="51.725" x="267.048"/>
    <rect height="30.572" width="6.905" stroke-miterlimit="3.864" stroke-width="2" stroke="#000000" fill="none" y="51.725" x="267.048"/>
    <rect height="59.178" width="9.86" fill="#FFFFFF" y="36.928" x="271.98"/>
    <rect height="59.178" width="9.86" stroke-miterlimit="3.864" stroke-width="2" stroke="#000000" fill="none" y="36.928" x="271.98"/>
    <path d="m338.216003,122.182999c0,6.537003 -5.299011,11.835999 -11.835999,11.835999l-34.953003,0c-6.535004,0 -11.835999,-5.298996 -11.835999,-11.835999l0,-109.356998c0,-6.54 5.300995,-11.836 11.835999,-11.836l34.953003,0c6.536987,0 11.835999,5.296 11.835999,11.836l0,109.356998z" fill="#FFFFFF"/>
   </g>
   <path d="m338.216003,122.182999c0,6.537003 -5.299011,11.835999 -11.835999,11.835999l-34.953003,0c-6.535004,0 -11.835999,-5.298996 -11.835999,-11.835999l0,-109.356998c0,-6.54 5.300995,-11.836 11.835999,-11.836l34.953003,0c6.536987,0 11.835999,5.296 11.835999,11.836l0,109.356998z" stroke-miterlimit="3.864" stroke-width="2" stroke="#000000" fill="none"/>
   <g>
    <path d="m246.584,52.708c2.584,0 4.682007,2.098999 4.682007,4.686001c0,2.586998 -2.098007,4.682999 -4.682007,4.682999c-2.587997,0 -4.686996,-2.096001 -4.686996,-4.682999c0,-2.587002 2.098999,-4.686001 4.686996,-4.686001" fill="#FFFFFF"/>
    <circle r="4.684" cy="57.392" cx="246.584" stroke-miterlimit="3.864" stroke-width="2" stroke="#000000" fill="none"/>
    <path d="m245.348007,79.833c2.723999,0 4.936005,2.205002 4.936005,4.931c0,2.723999 -2.212006,4.931 -4.936005,4.931s-4.931992,-2.207001 -4.931992,-4.931c-0.000015,-2.726997 2.207977,-4.931 4.931992,-4.931" fill="#FFFFFF"/>
    <path d="m245.348007,79.833c2.723999,0 4.936005,2.205002 4.936005,4.931c0,2.723999 -2.212006,4.931 -4.936005,4.931s-4.931992,-2.207001 -4.931992,-4.931c-0.000015,-2.726997 2.207977,-4.931 4.931992,-4.931z" stroke-miterlimit="3.864" stroke-width="2" stroke="#000000" fill="none"/>
    <rect height="4.934" width="46.356" fill="#FFFFFF" y="73.912" x="210.334"/>
    <rect height="4.934" width="46.356" stroke-miterlimit="3.864" stroke-width="2" stroke="#000000" fill="none" y="73.912" x="210.334"/>
    <rect height="15.286" width="6.408" fill="#FFFFFF" y="68.984" x="202.94"/>
    <rect height="15.286" width="6.408" stroke-miterlimit="3.864" stroke-width="2" stroke="#000000" fill="none" y="68.984" x="202.94"/>
    <rect height="12.329" width="18.248" fill="#FFFFFF" y="70.461" x="185.68"/>
    <rect height="12.329" width="18.248" stroke-miterlimit="3.864" stroke-width="2" stroke="#000000" fill="none" y="70.461" x="185.68"/>
    <rect height="4.931" width="41.421" fill="#FFFFFF" y="88.708" x="215.763"/>
    <rect height="4.931" width="41.421" stroke-miterlimit="3.864" stroke-width="2" stroke="#000000" fill="none" y="88.708" x="215.763"/>
    <path d="m273.457001,37.422001c0,0 -42.901001,4.438 -49.807007,5.424c-6.903,0.982998 -17.258987,15.779999 -17.258987,15.779999l0,8.874001c0,0 15.778,-17.75 19.723999,-19.723999c3.946991,-1.973 48.822006,-5.424 48.822006,-5.424l-1.480011,-4.93z" fill="#FFFFFF" clip-rule="evenodd" fill-rule="evenodd"/>
    <path d="m273.457001,37.422001c0,0 -42.901001,4.438 -49.807007,5.424c-6.903,0.982998 -17.258987,15.779999 -17.258987,15.779999l0,8.874001c0,0 15.778,-17.75 19.723999,-19.723999c3.946991,-1.973 48.822006,-5.424 48.822006,-5.424l-1.480011,-4.93z" stroke-miterlimit="3.864" stroke-width="2" stroke="#000000" fill="none"/>
    <path d="m262.363007,187.335007c3.675018,0 6.656006,2.981003 6.656006,6.660004c0,3.675003 -2.980988,6.656998 -6.656006,6.656998c-3.678986,0 -6.660004,-2.981003 -6.660004,-6.656998c0,-3.678009 2.981995,-6.660004 6.660004,-6.660004" fill="#FFFFFF"/>
    <circle r="6.658" cy="193.994" cx="262.363" stroke-miterlimit="3.864" stroke-width="2" stroke="#000000" fill="none"/>
    <path d="m261.621002,65.037003c6.536987,0 11.835999,5.297997 11.835999,11.834999c0,6.540001 -5.299011,11.835999 -11.835999,11.835999c-6.535995,0 -11.835999,-5.295998 -11.835999,-11.835999c0,-6.537003 5.300003,-11.834999 11.835999,-11.834999" fill="#FFFFFF"/>
   </g>
   <g>
    <defs>
     <rect height="728" width="339.601" id="svg_3"/>
    </defs>
    <clipPath id="svg_2">
     <use xlink:href="#svg_3"/>
    </clipPath>
    <path d="m270.401001,604.044983l-254.463001,0l0,-11.833984l254.463001,0l0,11.833984zm-162.571999,108.642029c0,1.381958 -0.398003,2.651978 -1.071999,3.658997c2.506996,0.630981 4.349998,2.737976 4.349998,5.237c0,3.000977 -2.647003,5.429993 -5.915001,5.429993l-3.947998,0c-3.266006,0 -5.918007,-2.429016 -5.918007,-5.429993c0,-2.270996 1.522003,-4.216003 3.677002,-5.031006c-0.760002,-1.034973 -1.220001,-2.388 -1.220001,-3.86499l0,-3.124023c0,-0.862 0.156006,-1.68396 0.440002,-2.421997l-8.665001,0c-3.266998,0 -5.915001,-2.646973 -5.915001,-5.917969l0,-51.286011c0,-3.270996 2.648003,-5.921021 5.915001,-5.921021l17.572998,0c0.531006,-15.20697 3.064003,-22.899963 12.386002,-25.007996c10.863998,-2.455994 15.776001,-4.096985 15.776001,-17.419983c0,-13.319031 2.459,-58.205994 0,-70.710022c-2.455002,-12.507019 -0.815994,-19.877991 7.373001,-46.523987c8.192001,-26.645996 13.322998,-56.35199 13.322998,-56.35199s-4.093002,-4.916016 -9.227997,-10.049011c-5.130005,-5.130005 0,-11.68399 0,-29.10199c0,-17.420013 6.772003,-38.934021 6.772003,-38.934021l-6.772003,-0.821991c0,0 2.675995,-4.089996 0.819992,-10.042999c-1.853989,-5.95401 -6.554993,-21.516998 0,-29.104004c6.558014,-7.59201 12.504013,-17.42099 12.504013,-17.42099l11.685989,3.279999c0,0 7.589005,6.768982 6.555008,12.501007c-1.039001,5.737 2.671997,10.86499 1.854996,16.60199c-0.820999,5.734009 -10.048004,12.503998 -10.048004,12.503998l-2.459991,25.007996c0,0 15.781998,12.287994 15.781998,16.600006c0,4.309998 0.815994,29.925995 0,35.656006c-0.820007,5.733002 -15.781998,10.048981 -15.781998,10.048981c0,9.226013 0,29.705017 -9.225998,53.076019c-9.229004,23.367004 -8.192001,40.787018 -8.192001,48.978973s-2.674011,8.40802 -2.674011,8.40802l0,47.344971c0,19.271057 2.674011,35.654053 -18.240997,43.027039c-12.267998,4.326965 -14.725998,12.461975 -14.660995,18.453003l3.832001,0c3.270996,0 5.917999,2.649963 5.917999,5.920959l0,51.286011c0,3.270996 -2.647003,5.91803 -5.917999,5.91803l-11.123001,0c0.286003,0.737976 0.440002,1.559998 0.440002,2.421997l0,3.125l0.000999,0zm171.349983,-557.410019l-22.527985,-3.973999l-4.936005,27.972l22.536011,3.977005l4.927979,-27.975006zm-1.013,-64.825996l-6.265991,-0.770996l-7.884979,64.219994l6.265991,0.770004l7.884979,-64.219002zm-16.544983,-25.413994c6.536987,0 11.835999,5.297997 11.835999,11.834999c0,6.540001 -5.299011,11.835999 -11.835999,11.835999c-6.535995,0 -11.835999,-5.295998 -11.835999,-11.835999c0,-6.537003 5.300003,-11.834999 11.835999,-11.834999z" stroke-miterlimit="3.864" stroke-width="2" stroke="#000000" fill="none" clip-path="url(#svg_2)"/>
   </g>
   <g>
    <rect height="5.606" width="185.318" fill="#FFFFFF" y="632.959" x="76.207"/>
    <rect height="5.606" width="185.318" stroke-miterlimit="3.864" stroke-width="2" stroke="#000000" fill="none" y="632.959" x="76.207"/>
    <rect height="44.382" width="27.615" fill="#FFFFFF" y="510.844" x="155.989"/>
    <rect height="44.382" width="27.615" stroke-miterlimit="3.864" stroke-width="2" stroke="#000000" fill="none" y="510.844" x="155.989"/>
    <rect height="29.096" width="18.739" fill="#FFFFFF" y="523.664" x="160.431"/>
    <rect height="29.096" width="18.739" stroke-miterlimit="3.864" stroke-width="2" stroke="#000000" fill="none" y="523.664" x="160.431"/>
    <rect height="38.959" width="22.685" fill="#FFFFFF" y="471.389" x="157.966"/>
    <rect height="38.959" width="22.685" stroke-miterlimit="3.864" stroke-width="2" stroke="#000000" fill="none" y="471.389" x="157.966"/>
    <rect height="0.009" width="20.71" fill="#FFFFFF" y="375.717" x="158.46"/>
    <rect height="0.009" width="20.71" stroke-miterlimit="3.864" stroke-width="2" stroke="#000000" fill="none" y="375.717" x="158.46"/>
    <polygon points="258.07,471.392 173.153,471.392 166.841,471.392 81.919,471.392 81.919,468.431 166.841,464.758    166.841,464.486 169.993,464.621 173.153,464.486 173.153,464.758 258.07,468.431  " fill="#FFFFFF"/>
    <polygon points="258.07,471.392 173.153,471.392    166.841,471.392 81.919,471.392 81.919,468.431 166.841,464.758 166.841,464.486 169.993,464.621 173.153,464.486 173.153,464.758    258.07,468.431  " stroke-miterlimit="3.864" stroke-width="2" stroke="#000000" fill="none"/>
    <rect height="47.342" width="5.915" fill="#FFFFFF" y="348.102" x="166.841"/>
    <rect height="47.342" width="5.915" stroke-miterlimit="3.864" stroke-width="2" stroke="#000000" fill="none" y="348.102" x="166.841"/>
    <rect height="4.441" width="10.849" fill="#FFFFFF" y="250.951" x="162.4"/>
    <rect height="4.441" width="10.849" stroke-miterlimit="3.864" stroke-width="2" stroke="#000000" fill="none" y="250.951" x="162.4"/>
    <rect height="25.152" width="4.929" fill="#FFFFFF" y="254.897" x="167.333"/>
    <rect height="25.152" width="4.929" stroke-miterlimit="3.864" stroke-width="2" stroke="#000000" fill="none" y="254.897" x="167.333"/>
    <rect height="30.573" width="6.904" fill="#FFFFFF" y="581.363" x="267.443"/>
    <rect height="30.573" width="6.904" stroke-miterlimit="3.864" stroke-width="2" stroke="#000000" fill="none" y="581.363" x="267.443"/>
    <rect height="59.178" width="9.863" fill="#FFFFFF" y="567.552" x="272.374"/>
    <rect height="59.178" width="9.863" stroke-miterlimit="3.864" stroke-width="2" stroke="#000000" fill="none" y="567.552" x="272.374"/>
    <path d="m338.609985,650.835999c0,6.536987 -5.298004,11.835999 -11.834991,11.835999l-34.953003,0c-6.535004,0 -11.834015,-5.299011 -11.834015,-11.835999l0,-109.357971c0,-6.536011 5.299011,-11.833984 11.834015,-11.833984l34.953003,0c6.536987,0 11.834991,5.297974 11.834991,11.833984l0,109.357971z" fill="#FFFFFF"/>
   </g>
   <path d="m338.609985,650.835999c0,6.536987 -5.298004,11.835999 -11.834991,11.835999l-34.953003,0c-6.535004,0 -11.834015,-5.299011 -11.834015,-11.835999l0,-109.357971c0,-6.536011 5.299011,-11.833984 11.834015,-11.833984l34.953003,0c6.536987,0 11.834991,5.297974 11.834991,11.833984l0,109.357971z" stroke-miterlimit="3.864" stroke-width="2" stroke="#000000" fill="none"/>
   <g>
    <path d="m246.977997,601.58197c2.583008,0 4.684006,2.098999 4.684006,4.682007c0,2.591003 -2.100998,4.687012 -4.684006,4.687012c-2.588989,0 -4.686996,-2.096008 -4.686996,-4.687012c0,-2.582947 2.098007,-4.682007 4.686996,-4.682007" fill="#FFFFFF"/>
    <path d="m246.977997,601.58197c2.583008,0 4.684006,2.098999 4.684006,4.682007c0,2.591003 -2.100998,4.687012 -4.684006,4.687012c-2.588989,0 -4.686996,-2.096008 -4.686996,-4.687012c0,-2.582947 2.098007,-4.682007 4.686996,-4.682007z" stroke-miterlimit="3.864" stroke-width="2" stroke="#000000" fill="none"/>
    <path d="m245.742996,573.963989c2.723999,0 4.932999,2.207031 4.932999,4.934021c0,2.723999 -2.209,4.930969 -4.932999,4.930969c-2.720993,0 -4.931992,-2.20697 -4.931992,-4.930969c0.000992,-2.72699 2.210999,-4.934021 4.931992,-4.934021" fill="#FFFFFF"/>
    <path d="m245.742996,573.963989c2.723999,0 4.932999,2.207031 4.932999,4.934021c0,2.723999 -2.209,4.930969 -4.932999,4.930969c-2.720993,0 -4.931992,-2.20697 -4.931992,-4.930969c0.000992,-2.72699 2.210999,-4.934021 4.931992,-4.934021z" stroke-miterlimit="3.864" stroke-width="2" stroke="#000000" fill="none"/>
    <rect height="4.931" width="46.355" fill="#FFFFFF" y="584.815" x="210.729"/>
    <rect height="4.931" width="46.355" stroke-miterlimit="3.864" stroke-width="2" stroke="#000000" fill="none" y="584.815" x="210.729"/>
    <rect height="15.289" width="6.407" fill="#FFFFFF" y="579.388" x="203.335"/>
    <rect height="15.289" width="6.407" stroke-miterlimit="3.864" stroke-width="2" stroke="#000000" fill="none" y="579.388" x="203.335"/>
    <rect height="12.329" width="18.245" fill="#FFFFFF" y="580.867" x="186.075"/>
    <rect height="12.329" width="18.245" stroke-miterlimit="3.864" stroke-width="2" stroke="#000000" fill="none" y="580.867" x="186.075"/>
    <rect height="4.931" width="41.422" fill="#FFFFFF" y="570.019" x="216.156"/>
    <rect height="4.931" width="41.422" stroke-miterlimit="3.864" stroke-width="2" stroke="#000000" fill="none" y="570.019" x="216.156"/>
    <path d="m273.854004,626.239014c0,0 -42.904007,-4.440002 -49.80899,-5.427979c-6.904999,-0.982056 -17.261002,-15.779053 -17.261002,-15.779053l0,-8.875c0,0 15.779999,17.754028 19.727005,19.727051c3.942993,1.970947 48.822998,5.421997 48.822998,5.421997l-1.480011,4.932983z" fill="#FFFFFF" clip-rule="evenodd" fill-rule="evenodd"/>
    <path d="m273.854004,626.239014c0,0 -42.904007,-4.440002 -49.80899,-5.427979c-6.904999,-0.982056 -17.261002,-15.779053 -17.261002,-15.779053l0,-8.875c0,0 15.779999,17.754028 19.727005,19.727051c3.942993,1.970947 48.822998,5.421997 48.822998,5.421997l-1.480011,4.932983z" stroke-miterlimit="3.864" stroke-width="2" stroke="#000000" fill="none"/>
    <path d="m262.756989,463.006012c3.679993,0 6.657013,2.980988 6.657013,6.656006c0,3.678986 -2.977997,6.660004 -6.657013,6.660004c-3.678009,0 -6.656006,-2.981018 -6.656006,-6.660004c0.000031,-3.675018 2.978027,-6.656006 6.656006,-6.656006" fill="#FFFFFF"/>
    <path d="m262.756989,463.006012c3.679993,0 6.657013,2.980988 6.657013,6.656006c0,3.678986 -2.977997,6.660004 -6.657013,6.660004c-3.678009,0 -6.656006,-2.981018 -6.656006,-6.660004c0.000031,-3.675018 2.978027,-6.656006 6.656006,-6.656006z" stroke-miterlimit="3.864" stroke-width="2" stroke="#000000" fill="none"/>
    <path d="m262.019012,574.948975c6.53299,0 11.835999,5.299988 11.835999,11.835999c0,6.539978 -5.303009,11.835999 -11.835999,11.835999c-6.540009,0 -11.835007,-5.296021 -11.835007,-11.835999c0,-6.53595 5.294998,-11.835999 11.835007,-11.835999" fill="#FFFFFF"/>
    <path d="m278.558014,573.20697l-6.263,0.77301l-7.886017,-64.220001l6.266022,-0.766998l7.882996,64.213989zm-16.539001,1.742004c6.53299,0 11.835999,5.299988 11.835999,11.835999c0,6.539978 -5.303009,11.835999 -11.835999,11.835999c-6.540009,0 -11.835007,-5.296021 -11.835007,-11.835999c0,-6.53595 5.294998,-11.835999 11.835007,-11.835999z" stroke-miterlimit="3.864" stroke-width="2" stroke="#000000" fill="none"/>
    <rect height="28.406" width="22.884" fill="#FFFFFF" transform="matrix(0.9848 -0.1736 0.1736 0.9848 -82.1555 53.703)" y="482.18" x="254.401"/>
    <rect height="28.406" width="22.884" stroke-miterlimit="3.864" stroke-width="2" stroke="#000000" fill="none" transform="matrix(0.9848 -0.1736 0.1736 0.9848 -82.1555 53.703)" y="482.18" x="254.401"/>
    <rect height="30.573" width="6.906" fill="#FFFFFF" y="581.363" x="65.647"/>
    <rect height="30.573" width="6.906" stroke-miterlimit="3.864" stroke-width="2" stroke="#000000" fill="none" y="581.363" x="65.647"/>
    <rect height="59.178" width="9.861" fill="#FFFFFF" y="567.552" x="57.756"/>
    <rect height="59.178" width="9.861" stroke-miterlimit="3.864" stroke-width="2" stroke="#000000" fill="none" y="567.552" x="57.756"/>
    <path d="m60.006001,650.835999c0,6.536987 -5.298,11.835999 -11.836002,11.835999l-34.952998,0c-6.539,0 -11.836,-5.299011 -11.836,-11.835999l0,-109.357971c0,-6.536011 5.297,-11.833984 11.836,-11.833984l34.952998,0c6.538002,0 11.836002,5.297974 11.836002,11.833984l0,109.357971z" fill="#FFFFFF"/>
   </g>
   <path d="m60.006001,650.835999c0,6.536987 -5.298,11.835999 -11.836002,11.835999l-34.952998,0c-6.539,0 -11.836,-5.299011 -11.836,-11.835999l0,-109.357971c0,-6.536011 5.297,-11.833984 11.836,-11.833984l34.952998,0c6.538002,0 11.836002,5.297974 11.836002,11.833984l0,109.357971z" stroke-miterlimit="3.864" stroke-width="2" stroke="#000000" fill="none"/>
   <g>
    <path d="m93.016998,601.58197c2.591003,0 4.681999,2.098999 4.681999,4.682007c0,2.591003 -2.090996,4.687012 -4.681999,4.687012s-4.684998,-2.096008 -4.684998,-4.687012c0,-2.582947 2.094002,-4.682007 4.684998,-4.682007" fill="#FFFFFF"/>
    <path d="m93.016998,601.58197c2.591003,0 4.681999,2.098999 4.681999,4.682007c0,2.591003 -2.090996,4.687012 -4.681999,4.687012s-4.684998,-2.096008 -4.684998,-4.687012c0,-2.582947 2.094002,-4.682007 4.684998,-4.682007z" stroke-miterlimit="3.864" stroke-width="2" stroke="#000000" fill="none"/>
    <path d="m94.25,573.963989c2.723999,0 4.931999,2.207031 4.931999,4.934021c0,2.723999 -2.208,4.930969 -4.931999,4.930969c-2.724998,0 -4.935997,-2.20697 -4.935997,-4.930969c0,-2.72699 2.210999,-4.934021 4.935997,-4.934021" fill="#FFFFFF"/>
    <circle r="4.932" cy="578.896" cx="94.25" stroke-miterlimit="3.864" stroke-width="2" stroke="#000000" fill="none"/>
    <rect height="4.931" width="46.356" fill="#FFFFFF" y="584.815" x="82.906"/>
    <rect height="4.931" width="46.356" stroke-miterlimit="3.864" stroke-width="2" stroke="#000000" fill="none" y="584.815" x="82.906"/>
    <rect height="15.289" width="6.41" fill="#FFFFFF" y="579.388" x="130.249"/>
    <rect height="15.289" width="6.41" stroke-miterlimit="3.864" stroke-width="2" stroke="#000000" fill="none" y="579.388" x="130.249"/>
    <rect height="12.329" width="18.246" fill="#FFFFFF" y="580.867" x="135.675"/>
    <rect height="12.329" width="18.246" stroke-miterlimit="3.864" stroke-width="2" stroke="#000000" fill="none" y="580.867" x="135.675"/>
    <rect height="4.931" width="41.423" fill="#FFFFFF" y="570.019" x="82.417"/>
    <rect height="4.931" width="41.423" stroke-miterlimit="3.864" stroke-width="2" stroke="#000000" fill="none" y="570.019" x="82.417"/>
    <path d="m66.139999,626.239014c0,0 42.902,-4.440002 49.809998,-5.427979c6.900002,-0.982056 17.255997,-15.779053 17.255997,-15.779053l0,-8.875c0,0 -15.775993,17.754028 -19.723991,19.727051c-3.948006,1.970947 -48.823006,5.421997 -48.823006,5.421997l1.481003,4.932983z" fill="#FFFFFF" clip-rule="evenodd" fill-rule="evenodd"/>
    <path d="m66.139999,626.239014c0,0 42.902,-4.440002 49.809998,-5.427979c6.900002,-0.982056 17.255997,-15.779053 17.255997,-15.779053l0,-8.875c0,0 -15.775993,17.754028 -19.723991,19.727051c-3.948006,1.970947 -48.823006,5.421997 -48.823006,5.421997l1.481003,4.932983z" stroke-miterlimit="3.864" stroke-width="2" stroke="#000000" fill="none"/>
    <path d="m77.234001,463.006012c3.678001,0 6.658997,2.980988 6.658997,6.656006c0,3.678986 -2.980995,6.660004 -6.658997,6.660004c-3.675003,0 -6.655998,-2.981018 -6.655998,-6.660004c0,-3.675018 2.981995,-6.656006 6.655998,-6.656006" fill="#FFFFFF"/>
    <path d="m77.234001,463.006012c3.678001,0 6.658997,2.980988 6.658997,6.656006c0,3.678986 -2.980995,6.660004 -6.658997,6.660004c-3.675003,0 -6.655998,-2.981018 -6.655998,-6.660004c0,-3.675018 2.981995,-6.656006 6.655998,-6.656006z" stroke-miterlimit="3.864" stroke-width="2" stroke="#000000" fill="none"/>
    <path d="m77.975998,574.948975c6.537003,0 11.835999,5.299988 11.835999,11.835999c0,6.539978 -5.298996,11.835999 -11.835999,11.835999c-6.539001,0 -11.834999,-5.296021 -11.834999,-11.835999c-0.000999,-6.53595 5.295998,-11.835999 11.834999,-11.835999" fill="#FFFFFF"/>
    <path d="m61.431,573.20697l6.264,0.77301l7.889999,-64.220001l-6.268997,-0.766998l-7.885002,64.213989zm16.544998,1.742004c6.537003,0 11.835999,5.299988 11.835999,11.835999c0,6.539978 -5.298996,11.835999 -11.835999,11.835999c-6.539001,0 -11.834999,-5.296021 -11.834999,-11.835999c-0.000999,-6.53595 5.295998,-11.835999 11.834999,-11.835999z" stroke-miterlimit="3.864" stroke-width="2" stroke="#000000" fill="none"/>
    <rect height="28.406" width="22.882" fill="#FFFFFF" transform="matrix(-0.9848 -0.1737 0.1737 -0.9848 60.9742 998.1014)" y="482.18" x="62.709"/>
    <rect height="28.406" width="22.882" stroke-miterlimit="3.864" stroke-width="2" stroke="#000000" fill="none" transform="matrix(-0.9848 -0.1737 0.1737 -0.9848 60.9742 998.1014)" y="482.18" x="62.709"/>
    <polygon points="221.089,577.218 161.811,577.218 161.811,577.417 118.907,577.417 118.907,569.529    150.469,569.529 161.811,569.529 221.089,569.529  " fill="#FFFFFF"/>
    <polygon points="221.089,577.218 161.811,577.218    161.811,577.417 118.907,577.417 118.907,569.529 150.469,569.529 161.811,569.529 221.089,569.529  " stroke-miterlimit="3.864" stroke-width="2" stroke="#000000" fill="none"/>
    <path d="m220.690002,248.585007c0,3.268005 -2.647003,5.917999 -5.915009,5.917999l-92.314995,0c-3.274002,0 -5.921997,-2.649994 -5.921997,-5.917999l0,-10.255005c0,-3.270996 2.646996,-5.921005 5.921997,-5.921005l92.314995,0c3.268005,0 5.915009,2.650009 5.915009,5.921005l0,10.255005z" fill="#FFFFFF"/>
    <path d="m220.690002,248.585007c0,3.268005 -2.647003,5.917999 -5.915009,5.917999l-92.314995,0c-3.274002,0 -5.921997,-2.649994 -5.921997,-5.917999l0,-10.255005c0,-3.270996 2.646996,-5.921005 5.921997,-5.921005l92.314995,0c3.268005,0 5.915009,2.650009 5.915009,5.921005l0,10.255005z" stroke-miterlimit="3.864" stroke-width="2" stroke="#000000" fill="none"/>
    <path d="m147.311005,172.371002c-2.263,-0.285995 -3.945007,-1.380997 -3.945007,-2.688995c0,-1.305008 1.682999,-2.400009 3.945007,-2.687012l0,-24.082001c-2.299011,-0.811996 -3.945007,-3.006989 -3.945007,-5.580002l0,-3.945999c0,-2.987 2.210007,-5.456993 5.084,-5.858994l-6.265991,-0.061996c-3.270004,0 -5.917999,-1.585007 -5.917999,-3.547005s2.647995,-3.553001 5.917999,-3.553001l42.605988,0c3.266006,0 5.917999,1.591003 5.917999,3.553001c0,1.946999 -2.606995,3.523003 -5.838989,3.547005c1.164001,1.082993 1.895996,2.626999 1.895996,4.341003l0,18.146988c0,2.271011 -1.279007,4.244003 -3.156998,5.238007l0,57.112991c1.877991,0.595001 3.156998,1.778 3.156998,3.142014c0,1.362991 -1.279007,2.544998 -3.156998,3.139999l0,7.479996c0.979004,0.418991 1.576004,0.985992 1.576004,1.608002c0,0.623001 -0.598007,1.186996 -1.576004,1.608994l0,16.141998c0,3.272003 -2.650009,5.921005 -5.917999,5.921005l-14.203003,0c-3.268005,0 -5.917999,-2.647995 -5.917999,-5.921005l0,-1.966995l-0.395996,0c-3.266998,0 -5.915009,-2.654999 -5.915009,-5.921005l0,-18.612c-2.703003,-0.330002 -4.733994,-1.759995 -4.733994,-3.478989c0,-1.720001 2.030991,-3.154007 4.733994,-3.480011l0,-0.405991c-2.302002,-0.815002 -3.945999,-3.007004 -3.945999,-5.582001l0,-33.608002l-0.000992,0z" fill="#FFFFFF"/>
    <path d="m147.311005,172.371002c-2.263,-0.285995 -3.945007,-1.380997 -3.945007,-2.688995c0,-1.305008 1.682999,-2.400009 3.945007,-2.687012l0,-24.082001c-2.299011,-0.811996 -3.945007,-3.006989 -3.945007,-5.580002l0,-3.945999c0,-2.987 2.210007,-5.456993 5.084,-5.858994l-6.265991,-0.061996c-3.270004,0 -5.917999,-1.585007 -5.917999,-3.547005s2.647995,-3.553001 5.917999,-3.553001l42.605988,0c3.266006,0 5.917999,1.591003 5.917999,3.553001c0,1.946999 -2.606995,3.523003 -5.838989,3.547005c1.164001,1.082993 1.895996,2.626999 1.895996,4.341003l0,18.146988c0,2.271011 -1.279007,4.244003 -3.156998,5.238007l0,57.112991c1.877991,0.595001 3.156998,1.778 3.156998,3.142014c0,1.362991 -1.279007,2.544998 -3.156998,3.139999l0,7.479996c0.979004,0.418991 1.576004,0.985992 1.576004,1.608002c0,0.623001 -0.598007,1.186996 -1.576004,1.608994l0,16.141998c0,3.272003 -2.650009,5.921005 -5.917999,5.921005l-14.203003,0c-3.268005,0 -5.917999,-2.647995 -5.917999,-5.921005l0,-1.966995l-0.395996,0c-3.266998,0 -5.915009,-2.654999 -5.915009,-5.921005l0,-18.612c-2.703003,-0.330002 -4.733994,-1.759995 -4.733994,-3.478989c0,-1.720001 2.030991,-3.154007 4.733994,-3.480011l0,-0.405991c-2.302002,-0.815002 -3.945999,-3.007004 -3.945999,-5.582001l0,-33.608002l-0.000992,0z" stroke-miterlimit="3.864" stroke-width="2" stroke="#000000" fill="none"/>
    <path d="m97.024002,57.639c-0.139999,-0.501999 -0.209999,-1.029999 -0.209999,-1.576l0,-3.944c0,-0.695 0.116997,-1.357998 0.333,-1.973999l-1.517006,0c-3.267998,0 -5.917,-2.293999 -5.917,-5.129002c0,-2.833 2.649002,-5.126999 5.917,-5.126999l52.469002,0l0,-2.762001c0,-3.27 2.649994,-5.919998 5.921005,-5.919998l46.552994,0c3.268005,0 5.915009,2.649998 5.915009,5.919998l0,2.762001l20.123993,0c3.266006,0 5.914993,2.293999 5.914993,5.126999c0,1.468002 -0.706985,2.788002 -1.849991,3.722c0.669998,0.960003 1.061996,2.122002 1.061996,3.381001l0,1.865002c1.876999,0.993 3.154999,2.962997 3.154999,5.235001l0,39.449997c0,3.270004 -2.647003,5.917999 -5.917999,5.917999l-5.125992,0l0,0.394005c0,3.269997 -2.650009,5.917999 -5.921005,5.917999l-23.134003,0c0.415009,0.595001 0.647003,1.264 0.647003,1.973c0,2.396996 -2.649002,4.341995 -5.917007,4.341995l-48.92099,0c-3.268005,0 -5.915009,-1.945 -5.915009,-4.341995c0,-0.709 0.230011,-1.377998 0.641998,-1.973l-24.705994,0c-3.273003,0 -5.920998,-2.648003 -5.920998,-5.917999l0,-0.394005l-1.975006,0c-3.265999,0 -5.914993,-2.647995 -5.914993,-5.917999l0,-39.449997c0,-0.547001 0.070999,-1.078003 0.209999,-1.580002" fill="#FFFFFF"/>
    <path d="m97.024002,57.639c-0.139999,-0.501999 -0.209999,-1.029999 -0.209999,-1.576l0,-3.944c0,-0.695 0.116997,-1.357998 0.333,-1.973999l-1.517006,0c-3.267998,0 -5.917,-2.293999 -5.917,-5.129002c0,-2.833 2.649002,-5.126999 5.917,-5.126999l52.469002,0l0,-2.762001c0,-3.27 2.649994,-5.919998 5.921005,-5.919998l46.552994,0c3.268005,0 5.915009,2.649998 5.915009,5.919998l0,2.762001l20.123993,0c3.266006,0 5.914993,2.293999 5.914993,5.126999c0,1.468002 -0.706985,2.788002 -1.849991,3.722c0.669998,0.960003 1.061996,2.122002 1.061996,3.381001l0,1.865002c1.876999,0.993 3.154999,2.962997 3.154999,5.235001l0,39.449997c0,3.270004 -2.647003,5.917999 -5.917999,5.917999l-5.125992,0l0,0.394005c0,3.269997 -2.650009,5.917999 -5.921005,5.917999l-23.134003,0c0.415009,0.595001 0.647003,1.264 0.647003,1.973c0,2.396996 -2.649002,4.341995 -5.917007,4.341995l-48.92099,0c-3.268005,0 -5.915009,-1.945 -5.915009,-4.341995c0,-0.709 0.230011,-1.377998 0.641998,-1.973l-24.705994,0c-3.273003,0 -5.920998,-2.648003 -5.920998,-5.917999l0,-0.394005l-1.975006,0c-3.265999,0 -5.914993,-2.647995 -5.914993,-5.917999l0,-39.449997c0,-0.547001 0.070999,-1.078003 0.209999,-1.580002z" stroke-miterlimit="3.864" stroke-width="2" stroke="#000000" fill="none"/>
    <path d="m178.830994,613.028015c0,3.268005 -2.645996,5.914978 -5.917999,5.914978l-7.477997,0c-3.266006,0 -5.91301,-2.646973 -5.91301,-5.914978l0,-53.934998c0,-3.265991 2.647003,-5.919006 5.91301,-5.919006l7.477997,0c3.270996,0 5.917999,2.653015 5.917999,5.919006l0,53.934998z" fill="#FFFFFF"/>
    <path d="m178.830994,613.028015c0,3.268005 -2.645996,5.914978 -5.917999,5.914978l-7.477997,0c-3.266006,0 -5.91301,-2.646973 -5.91301,-5.914978l0,-53.934998c0,-3.265991 2.647003,-5.919006 5.91301,-5.919006l7.477997,0c3.270996,0 5.917999,2.653015 5.917999,5.919006l0,53.934998z" stroke-miterlimit="3.864" stroke-width="2" stroke="#000000" fill="none"/>
    <rect height="74.96" width="11.342" fill="#FFFFFF" y="276.102" x="163.881"/>
    <rect height="74.96" width="11.342" stroke-miterlimit="3.864" stroke-width="2" stroke="#000000" fill="none" y="276.102" x="163.881"/>
    <rect height="75.453" width="10.848" fill="#FFFFFF" y="390.514" x="164.375"/>
    <rect height="75.453" width="10.848" stroke-miterlimit="3.864" stroke-width="2" stroke="#000000" fill="none" y="390.514" x="164.375"/>
    <rect height="7.89" width="10.849" fill="#FFFFFF" y="267.227" x="163.388"/>
    <rect height="7.89" width="10.849" stroke-miterlimit="3.864" stroke-width="2" stroke="#000000" fill="none" y="267.227" x="163.388"/>
    <rect height="6.411" width="10.848" fill="#FFFFFF" y="254.405" x="162.895"/>
    <rect height="6.411" width="10.848" stroke-miterlimit="3.864" stroke-width="2" stroke="#000000" fill="none" y="254.405" x="162.895"/>
    <rect height="2.958" width="14.303" fill="#FFFFFF" y="258.842" x="161.907"/>
    <rect height="2.958" width="14.303" stroke-miterlimit="3.864" stroke-width="2" stroke="#000000" fill="none" y="258.842" x="161.907"/>
    <rect height="7.89" width="11.342" fill="#FFFFFF" y="380.653" x="163.881"/>
    <rect height="7.89" width="11.342" stroke-miterlimit="3.864" stroke-width="2" stroke="#000000" fill="none" y="380.653" x="163.881"/>
    <rect height="3.453" width="13.81" fill="#FFFFFF" y="364.868" x="162.4"/>
    <rect height="3.453" width="13.81" stroke-miterlimit="3.864" stroke-width="2" stroke="#000000" fill="none" y="364.868" x="162.4"/>
    <rect height="2.957" width="9.367" fill="#FFFFFF" y="367.829" x="164.375"/>
    <rect height="2.957" width="9.367" stroke-miterlimit="3.864" stroke-width="2" stroke="#000000" fill="none" y="367.829" x="164.375"/>
    <rect height="4.439" width="32.053" fill="#FFFFFF" y="360.925" x="153.525"/>
    <rect height="4.439" width="32.053" stroke-miterlimit="3.864" stroke-width="2" stroke="#000000" fill="none" y="360.925" x="153.525"/>
   </g>
  </symbol>
 </defs>
 <g>
  <title>Layer 1</title>
  <use x="0" y="0" transform="matrix(0.392828, 0, 0, 0.395264, 0.618208, 0.623791)" xlink:href="#svg_4" id="svg_5"/>
 </g>
</svg>