<?xml version="1.0" encoding="utf-8"?>
<!-- Generator: Adobe Illustrator 15.1.0, SVG Export Plug-In . SVG Version: 6.00 Build 0)  -->
<!DOCTYPE svg PUBLIC "-//W3C//DTD SVG 1.1//EN" "http://www.w3.org/Graphics/SVG/1.1/DTD/svg11.dtd">
<svg version="1.1" id="Layer_1" xmlns="http://www.w3.org/2000/svg" xmlns:xlink="http://www.w3.org/1999/xlink" x="0px" y="0px"
	 width="339.601px" height="728px" viewBox="0 0 339.601 728" enable-background="new 0 0 339.601 728" xml:space="preserve">
<rect x="65.253" y="51.725" fill="none" stroke="#000000" stroke-width="2" stroke-miterlimit="3.864" width="6.904" height="30.572"/>
<rect x="57.36" y="36.928" fill="#FFFFFF" width="9.863" height="59.178"/>
<rect x="57.36" y="36.928" fill="none" stroke="#000000" stroke-width="2" stroke-miterlimit="3.864" width="9.863" height="59.178"/>
<path fill="#FFFFFF" d="M59.609,122.183c0,6.537-5.296,11.836-11.834,11.836H12.821c-6.535,0-11.835-5.299-11.835-11.836V12.826
	c0-6.54,5.3-11.836,11.835-11.836h34.954c6.538,0,11.834,5.296,11.834,11.836V122.183z"/>
<path fill="none" stroke="#000000" stroke-width="2" stroke-miterlimit="3.864" d="M59.609,122.183
	c0,6.537-5.296,11.836-11.834,11.836H12.821c-6.535,0-11.835-5.299-11.835-11.836V12.826c0-6.54,5.3-11.836,11.835-11.836h34.954
	c6.538,0,11.834,5.296,11.834,11.836V122.183z"/>
<g>
	<path fill="#FFFFFF" d="M92.622,52.708c2.583,0,4.684,2.099,4.684,4.686c0,2.587-2.101,4.683-4.684,4.683
		c-2.589,0-4.686-2.096-4.686-4.683C87.937,54.807,90.033,52.708,92.622,52.708"/>
	<path fill="none" stroke="#000000" stroke-width="2" stroke-miterlimit="3.864" d="M92.622,52.708
		c2.583,0,4.684,2.099,4.684,4.686c0,2.587-2.101,4.683-4.684,4.683c-2.589,0-4.686-2.096-4.686-4.683
		C87.937,54.807,90.033,52.708,92.622,52.708z"/>
	<path fill="#FFFFFF" d="M93.854,79.833c2.724,0,4.935,2.205,4.935,4.931c0,2.724-2.211,4.931-4.935,4.931
		c-2.725,0-4.934-2.207-4.934-4.931C88.921,82.037,91.13,79.833,93.854,79.833"/>
	<path fill="none" stroke="#000000" stroke-width="2" stroke-miterlimit="3.864" d="M93.854,79.833
		c2.724,0,4.935,2.205,4.935,4.931c0,2.724-2.211,4.931-4.935,4.931c-2.725,0-4.934-2.207-4.934-4.931
		C88.921,82.037,91.13,79.833,93.854,79.833z"/>
	<rect x="82.513" y="73.912" fill="#FFFFFF" width="46.354" height="4.934"/>
	
		<rect x="82.513" y="73.912" fill="none" stroke="#000000" stroke-width="2" stroke-miterlimit="3.864" width="46.354" height="4.934"/>
	<rect x="129.857" y="68.984" fill="#FFFFFF" width="6.408" height="15.286"/>
	
		<rect x="129.857" y="68.984" fill="none" stroke="#000000" stroke-width="2" stroke-miterlimit="3.864" width="6.408" height="15.286"/>
	<rect x="135.279" y="70.461" fill="#FFFFFF" width="18.246" height="12.329"/>
	
		<rect x="135.279" y="70.461" fill="none" stroke="#000000" stroke-width="2" stroke-miterlimit="3.864" width="18.246" height="12.329"/>
	<rect x="82.019" y="88.708" fill="#FFFFFF" width="41.426" height="4.931"/>
	
		<rect x="82.019" y="88.708" fill="none" stroke="#000000" stroke-width="2" stroke-miterlimit="3.864" width="41.426" height="4.931"/>
	<path fill-rule="evenodd" clip-rule="evenodd" fill="#FFFFFF" d="M65.746,37.422c0,0,42.901,4.438,49.809,5.424
		c6.901,0.983,17.258,15.78,17.258,15.78V67.5c0,0-15.781-17.75-19.725-19.724c-3.946-1.973-48.822-5.424-48.822-5.424
		L65.746,37.422z"/>
	<path fill="none" stroke="#000000" stroke-width="2" stroke-miterlimit="3.864" d="M65.746,37.422
		c0,0,42.901,4.438,49.809,5.424c6.901,0.983,17.258,15.78,17.258,15.78V67.5c0,0-15.781-17.75-19.725-19.724
		c-3.946-1.973-48.822-5.424-48.822-5.424L65.746,37.422z"/>
	<path fill="#FFFFFF" d="M76.841,187.335c3.678,0,6.657,2.981,6.657,6.66c0,3.675-2.979,6.657-6.657,6.657
		c-3.677,0-6.657-2.981-6.657-6.657C70.184,190.317,73.164,187.335,76.841,187.335"/>
	<circle fill="none" stroke="#000000" stroke-width="2" stroke-miterlimit="3.864" cx="76.841" cy="193.994" r="6.658"/>
	<path fill="#FFFFFF" d="M77.582,65.037c6.533,0,11.834,5.298,11.834,11.835c0,6.54-5.301,11.836-11.834,11.836
		c-6.54,0-11.836-5.296-11.836-11.836C65.746,70.335,71.042,65.037,77.582,65.037"/>
	<path fill="none" stroke="#000000" stroke-width="2" stroke-miterlimit="3.864" d="M60.021,155.277l22.534-3.974l4.931,27.972
		l-22.534,3.977L60.021,155.277z M61.037,90.451l6.266-0.771l7.885,64.22l-6.266,0.77L61.037,90.451z M77.582,65.037
		c6.533,0,11.834,5.298,11.834,11.835c0,6.54-5.301,11.836-11.834,11.836c-6.54,0-11.836-5.296-11.836-11.836
		C65.746,70.335,71.042,65.037,77.582,65.037z"/>
	<rect x="267.048" y="51.725" fill="#FFFFFF" width="6.905" height="30.572"/>
	
		<rect x="267.048" y="51.725" fill="none" stroke="#000000" stroke-width="2" stroke-miterlimit="3.864" width="6.905" height="30.572"/>
	<rect x="271.98" y="36.928" fill="#FFFFFF" width="9.86" height="59.178"/>
	
		<rect x="271.98" y="36.928" fill="none" stroke="#000000" stroke-width="2" stroke-miterlimit="3.864" width="9.86" height="59.178"/>
	<path fill="#FFFFFF" d="M338.216,122.183c0,6.537-5.299,11.836-11.836,11.836h-34.953c-6.535,0-11.836-5.299-11.836-11.836V12.826
		c0-6.54,5.301-11.836,11.836-11.836h34.953c6.537,0,11.836,5.296,11.836,11.836V122.183z"/>
</g>
<path fill="none" stroke="#000000" stroke-width="2" stroke-miterlimit="3.864" d="M338.216,122.183
	c0,6.537-5.299,11.836-11.836,11.836h-34.953c-6.535,0-11.836-5.299-11.836-11.836V12.826c0-6.54,5.301-11.836,11.836-11.836h34.953
	c6.537,0,11.836,5.296,11.836,11.836V122.183z"/>
<g>
	<path fill="#FFFFFF" d="M246.584,52.708c2.584,0,4.682,2.099,4.682,4.686c0,2.587-2.098,4.683-4.682,4.683
		c-2.588,0-4.687-2.096-4.687-4.683C241.897,54.807,243.996,52.708,246.584,52.708"/>
	<circle fill="none" stroke="#000000" stroke-width="2" stroke-miterlimit="3.864" cx="246.584" cy="57.392" r="4.684"/>
	<path fill="#FFFFFF" d="M245.348,79.833c2.724,0,4.936,2.205,4.936,4.931c0,2.724-2.212,4.931-4.936,4.931
		s-4.932-2.207-4.932-4.931C240.416,82.037,242.624,79.833,245.348,79.833"/>
	<path fill="none" stroke="#000000" stroke-width="2" stroke-miterlimit="3.864" d="M245.348,79.833
		c2.724,0,4.936,2.205,4.936,4.931c0,2.724-2.212,4.931-4.936,4.931s-4.932-2.207-4.932-4.931
		C240.416,82.037,242.624,79.833,245.348,79.833z"/>
	<rect x="210.334" y="73.912" fill="#FFFFFF" width="46.356" height="4.934"/>
	
		<rect x="210.334" y="73.912" fill="none" stroke="#000000" stroke-width="2" stroke-miterlimit="3.864" width="46.356" height="4.934"/>
	<rect x="202.94" y="68.984" fill="#FFFFFF" width="6.408" height="15.286"/>
	
		<rect x="202.94" y="68.984" fill="none" stroke="#000000" stroke-width="2" stroke-miterlimit="3.864" width="6.408" height="15.286"/>
	<rect x="185.68" y="70.461" fill="#FFFFFF" width="18.248" height="12.329"/>
	
		<rect x="185.68" y="70.461" fill="none" stroke="#000000" stroke-width="2" stroke-miterlimit="3.864" width="18.248" height="12.329"/>
	<rect x="215.763" y="88.708" fill="#FFFFFF" width="41.421" height="4.931"/>
	
		<rect x="215.763" y="88.708" fill="none" stroke="#000000" stroke-width="2" stroke-miterlimit="3.864" width="41.421" height="4.931"/>
	<path fill-rule="evenodd" clip-rule="evenodd" fill="#FFFFFF" d="M273.457,37.422c0,0-42.901,4.438-49.807,5.424
		c-6.903,0.983-17.259,15.78-17.259,15.78V67.5c0,0,15.778-17.75,19.724-19.724c3.947-1.973,48.822-5.424,48.822-5.424
		L273.457,37.422z"/>
	<path fill="none" stroke="#000000" stroke-width="2" stroke-miterlimit="3.864" d="M273.457,37.422
		c0,0-42.901,4.438-49.807,5.424c-6.903,0.983-17.259,15.78-17.259,15.78V67.5c0,0,15.778-17.75,19.724-19.724
		c3.947-1.973,48.822-5.424,48.822-5.424L273.457,37.422z"/>
	<path fill="#FFFFFF" d="M262.363,187.335c3.675,0,6.656,2.981,6.656,6.66c0,3.675-2.981,6.657-6.656,6.657
		c-3.679,0-6.66-2.981-6.66-6.657C255.703,190.317,258.685,187.335,262.363,187.335"/>
	<circle fill="none" stroke="#000000" stroke-width="2" stroke-miterlimit="3.864" cx="262.363" cy="193.994" r="6.658"/>
	<path fill="#FFFFFF" d="M261.621,65.037c6.537,0,11.836,5.298,11.836,11.835c0,6.54-5.299,11.836-11.836,11.836
		c-6.536,0-11.836-5.296-11.836-11.836C249.785,70.335,255.085,65.037,261.621,65.037"/>
</g>
<g>
	<defs>
		<rect id="SVGID_1_" width="339.601" height="728"/>
	</defs>
	<clipPath id="SVGID_2_">
		<use xlink:href="#SVGID_1_"  overflow="visible"/>
	</clipPath>
	<path clip-path="url(#SVGID_2_)" fill="none" stroke="#000000" stroke-width="2" stroke-miterlimit="3.864" d="M270.401,604.045
		H15.938v-11.834h254.463V604.045z M107.829,712.687c0,1.382-0.398,2.652-1.072,3.659c2.507,0.631,4.35,2.738,4.35,5.237
		c0,3.001-2.647,5.43-5.915,5.43h-3.948c-3.266,0-5.918-2.429-5.918-5.43c0-2.271,1.522-4.216,3.677-5.031
		c-0.76-1.035-1.22-2.388-1.22-3.865v-3.124c0-0.862,0.156-1.684,0.44-2.422h-8.665c-3.267,0-5.915-2.647-5.915-5.918v-51.286
		c0-3.271,2.648-5.921,5.915-5.921h17.573c0.531-15.207,3.064-22.9,12.386-25.008c10.864-2.456,15.776-4.097,15.776-17.42
		c0-13.319,2.459-58.206,0-70.71c-2.455-12.507-0.816-19.878,7.373-46.524c8.192-26.646,13.323-56.352,13.323-56.352
		s-4.093-4.916-9.228-10.049c-5.13-5.13,0-11.684,0-29.102c0-17.42,6.772-38.934,6.772-38.934l-6.772-0.822
		c0,0,2.676-4.09,0.82-10.043c-1.854-5.954-6.555-21.517,0-29.104c6.558-7.592,12.504-17.421,12.504-17.421l11.686,3.28
		c0,0,7.589,6.769,6.555,12.501c-1.039,5.737,2.672,10.865,1.855,16.602c-0.821,5.734-10.048,12.504-10.048,12.504l-2.46,25.008
		c0,0,15.782,12.288,15.782,16.6c0,4.31,0.816,29.926,0,35.656c-0.82,5.733-15.782,10.049-15.782,10.049
		c0,9.226,0,29.705-9.226,53.076c-9.229,23.367-8.192,40.787-8.192,48.979s-2.674,8.408-2.674,8.408v47.345
		c0,19.271,2.674,35.654-18.241,43.027c-12.268,4.327-14.726,12.462-14.661,18.453h3.832c3.271,0,5.918,2.65,5.918,5.921v51.286
		c0,3.271-2.647,5.918-5.918,5.918h-11.123c0.286,0.738,0.44,1.56,0.44,2.422V712.687z M279.179,155.277l-22.528-3.974
		l-4.936,27.972l22.536,3.977L279.179,155.277z M278.166,90.451L271.9,89.68l-7.885,64.22l6.266,0.77L278.166,90.451z
		 M261.621,65.037c6.537,0,11.836,5.298,11.836,11.835c0,6.54-5.299,11.836-11.836,11.836c-6.536,0-11.836-5.296-11.836-11.836
		C249.785,70.335,255.085,65.037,261.621,65.037z"/>
</g>
<g>
	<rect x="76.207" y="632.959" fill="#FFFFFF" width="185.318" height="5.606"/>
	
		<rect x="76.207" y="632.959" fill="none" stroke="#000000" stroke-width="2" stroke-miterlimit="3.864" width="185.318" height="5.606"/>
	<rect x="155.989" y="510.844" fill="#FFFFFF" width="27.615" height="44.382"/>
	
		<rect x="155.989" y="510.844" fill="none" stroke="#000000" stroke-width="2" stroke-miterlimit="3.864" width="27.615" height="44.382"/>
	<rect x="160.431" y="523.664" fill="#FFFFFF" width="18.739" height="29.096"/>
	
		<rect x="160.431" y="523.664" fill="none" stroke="#000000" stroke-width="2" stroke-miterlimit="3.864" width="18.739" height="29.096"/>
	<rect x="157.966" y="471.389" fill="#FFFFFF" width="22.685" height="38.959"/>
	
		<rect x="157.966" y="471.389" fill="none" stroke="#000000" stroke-width="2" stroke-miterlimit="3.864" width="22.685" height="38.959"/>
	<rect x="158.46" y="375.717" fill="#FFFFFF" width="20.71" height="0.009"/>
	
		<rect x="158.46" y="375.717" fill="none" stroke="#000000" stroke-width="2" stroke-miterlimit="3.864" width="20.71" height="0.009"/>
	<polygon fill="#FFFFFF" points="258.07,471.392 173.153,471.392 166.841,471.392 81.919,471.392 81.919,468.431 166.841,464.758 
		166.841,464.486 169.993,464.621 173.153,464.486 173.153,464.758 258.07,468.431 	"/>
	<polygon fill="none" stroke="#000000" stroke-width="2" stroke-miterlimit="3.864" points="258.07,471.392 173.153,471.392 
		166.841,471.392 81.919,471.392 81.919,468.431 166.841,464.758 166.841,464.486 169.993,464.621 173.153,464.486 173.153,464.758 
		258.07,468.431 	"/>
	<rect x="166.841" y="348.102" fill="#FFFFFF" width="5.915" height="47.342"/>
	
		<rect x="166.841" y="348.102" fill="none" stroke="#000000" stroke-width="2" stroke-miterlimit="3.864" width="5.915" height="47.342"/>
	<rect x="162.4" y="250.951" fill="#FFFFFF" width="10.849" height="4.441"/>
	
		<rect x="162.4" y="250.951" fill="none" stroke="#000000" stroke-width="2" stroke-miterlimit="3.864" width="10.849" height="4.441"/>
	<rect x="167.333" y="254.897" fill="#FFFFFF" width="4.929" height="25.152"/>
	
		<rect x="167.333" y="254.897" fill="none" stroke="#000000" stroke-width="2" stroke-miterlimit="3.864" width="4.929" height="25.152"/>
	<rect x="267.443" y="581.363" fill="#FFFFFF" width="6.904" height="30.573"/>
	
		<rect x="267.443" y="581.363" fill="none" stroke="#000000" stroke-width="2" stroke-miterlimit="3.864" width="6.904" height="30.573"/>
	<rect x="272.374" y="567.552" fill="#FFFFFF" width="9.863" height="59.178"/>
	
		<rect x="272.374" y="567.552" fill="none" stroke="#000000" stroke-width="2" stroke-miterlimit="3.864" width="9.863" height="59.178"/>
	<path fill="#FFFFFF" d="M338.61,650.836c0,6.537-5.298,11.836-11.835,11.836h-34.953c-6.535,0-11.834-5.299-11.834-11.836V541.478
		c0-6.536,5.299-11.834,11.834-11.834h34.953c6.537,0,11.835,5.298,11.835,11.834V650.836z"/>
</g>
<path fill="none" stroke="#000000" stroke-width="2" stroke-miterlimit="3.864" d="M338.61,650.836
	c0,6.537-5.298,11.836-11.835,11.836h-34.953c-6.535,0-11.834-5.299-11.834-11.836V541.478c0-6.536,5.299-11.834,11.834-11.834
	h34.953c6.537,0,11.835,5.298,11.835,11.834V650.836z"/>
<g>
	<path fill="#FFFFFF" d="M246.978,601.582c2.583,0,4.684,2.099,4.684,4.682c0,2.591-2.101,4.687-4.684,4.687
		c-2.589,0-4.687-2.096-4.687-4.687C242.291,603.681,244.389,601.582,246.978,601.582"/>
	<path fill="none" stroke="#000000" stroke-width="2" stroke-miterlimit="3.864" d="M246.978,601.582
		c2.583,0,4.684,2.099,4.684,4.682c0,2.591-2.101,4.687-4.684,4.687c-2.589,0-4.687-2.096-4.687-4.687
		C242.291,603.681,244.389,601.582,246.978,601.582z"/>
	<path fill="#FFFFFF" d="M245.743,573.964c2.724,0,4.933,2.207,4.933,4.934c0,2.724-2.209,4.931-4.933,4.931
		c-2.721,0-4.932-2.207-4.932-4.931C240.812,576.171,243.022,573.964,245.743,573.964"/>
	<path fill="none" stroke="#000000" stroke-width="2" stroke-miterlimit="3.864" d="M245.743,573.964
		c2.724,0,4.933,2.207,4.933,4.934c0,2.724-2.209,4.931-4.933,4.931c-2.721,0-4.932-2.207-4.932-4.931
		C240.812,576.171,243.022,573.964,245.743,573.964z"/>
	<rect x="210.729" y="584.815" fill="#FFFFFF" width="46.355" height="4.931"/>
	
		<rect x="210.729" y="584.815" fill="none" stroke="#000000" stroke-width="2" stroke-miterlimit="3.864" width="46.355" height="4.931"/>
	<rect x="203.335" y="579.388" fill="#FFFFFF" width="6.407" height="15.289"/>
	
		<rect x="203.335" y="579.388" fill="none" stroke="#000000" stroke-width="2" stroke-miterlimit="3.864" width="6.407" height="15.289"/>
	<rect x="186.075" y="580.867" fill="#FFFFFF" width="18.245" height="12.329"/>
	
		<rect x="186.075" y="580.867" fill="none" stroke="#000000" stroke-width="2" stroke-miterlimit="3.864" width="18.245" height="12.329"/>
	<rect x="216.156" y="570.019" fill="#FFFFFF" width="41.422" height="4.931"/>
	
		<rect x="216.156" y="570.019" fill="none" stroke="#000000" stroke-width="2" stroke-miterlimit="3.864" width="41.422" height="4.931"/>
	<path fill-rule="evenodd" clip-rule="evenodd" fill="#FFFFFF" d="M273.854,626.239c0,0-42.904-4.44-49.809-5.428
		c-6.905-0.982-17.261-15.779-17.261-15.779v-8.875c0,0,15.78,17.754,19.727,19.727c3.943,1.971,48.823,5.422,48.823,5.422
		L273.854,626.239z"/>
	<path fill="none" stroke="#000000" stroke-width="2" stroke-miterlimit="3.864" d="M273.854,626.239
		c0,0-42.904-4.44-49.809-5.428c-6.905-0.982-17.261-15.779-17.261-15.779v-8.875c0,0,15.78,17.754,19.727,19.727
		c3.943,1.971,48.823,5.422,48.823,5.422L273.854,626.239z"/>
	<path fill="#FFFFFF" d="M262.757,463.006c3.68,0,6.657,2.981,6.657,6.656c0,3.679-2.978,6.66-6.657,6.66
		c-3.678,0-6.656-2.981-6.656-6.66C256.101,465.987,259.079,463.006,262.757,463.006"/>
	<path fill="none" stroke="#000000" stroke-width="2" stroke-miterlimit="3.864" d="M262.757,463.006
		c3.68,0,6.657,2.981,6.657,6.656c0,3.679-2.978,6.66-6.657,6.66c-3.678,0-6.656-2.981-6.656-6.66
		C256.101,465.987,259.079,463.006,262.757,463.006z"/>
	<path fill="#FFFFFF" d="M262.019,574.949c6.533,0,11.836,5.3,11.836,11.836c0,6.54-5.303,11.836-11.836,11.836
		c-6.54,0-11.835-5.296-11.835-11.836C250.184,580.249,255.479,574.949,262.019,574.949"/>
	<path fill="none" stroke="#000000" stroke-width="2" stroke-miterlimit="3.864" d="M278.558,573.207l-6.263,0.773l-7.886-64.22
		l6.266-0.767L278.558,573.207z M262.019,574.949c6.533,0,11.836,5.3,11.836,11.836c0,6.54-5.303,11.836-11.836,11.836
		c-6.54,0-11.835-5.296-11.835-11.836C250.184,580.249,255.479,574.949,262.019,574.949z"/>
	
		<rect x="254.401" y="482.18" transform="matrix(0.9848 -0.1736 0.1736 0.9848 -82.1555 53.703)" fill="#FFFFFF" width="22.884" height="28.406"/>
	
		<rect x="254.401" y="482.18" transform="matrix(0.9848 -0.1736 0.1736 0.9848 -82.1555 53.703)" fill="none" stroke="#000000" stroke-width="2" stroke-miterlimit="3.864" width="22.884" height="28.406"/>
	<rect x="65.647" y="581.363" fill="#FFFFFF" width="6.906" height="30.573"/>
	
		<rect x="65.647" y="581.363" fill="none" stroke="#000000" stroke-width="2" stroke-miterlimit="3.864" width="6.906" height="30.573"/>
	<rect x="57.756" y="567.552" fill="#FFFFFF" width="9.861" height="59.178"/>
	
		<rect x="57.756" y="567.552" fill="none" stroke="#000000" stroke-width="2" stroke-miterlimit="3.864" width="9.861" height="59.178"/>
	<path fill="#FFFFFF" d="M60.006,650.836c0,6.537-5.298,11.836-11.836,11.836H13.217c-6.539,0-11.836-5.299-11.836-11.836V541.478
		c0-6.536,5.297-11.834,11.836-11.834H48.17c6.538,0,11.836,5.298,11.836,11.834V650.836z"/>
</g>
<path fill="none" stroke="#000000" stroke-width="2" stroke-miterlimit="3.864" d="M60.006,650.836
	c0,6.537-5.298,11.836-11.836,11.836H13.217c-6.539,0-11.836-5.299-11.836-11.836V541.478c0-6.536,5.297-11.834,11.836-11.834H48.17
	c6.538,0,11.836,5.298,11.836,11.834V650.836z"/>
<g>
	<path fill="#FFFFFF" d="M93.017,601.582c2.591,0,4.682,2.099,4.682,4.682c0,2.591-2.091,4.687-4.682,4.687
		s-4.685-2.096-4.685-4.687C88.332,603.681,90.426,601.582,93.017,601.582"/>
	<path fill="none" stroke="#000000" stroke-width="2" stroke-miterlimit="3.864" d="M93.017,601.582
		c2.591,0,4.682,2.099,4.682,4.682c0,2.591-2.091,4.687-4.682,4.687s-4.685-2.096-4.685-4.687
		C88.332,603.681,90.426,601.582,93.017,601.582z"/>
	<path fill="#FFFFFF" d="M94.25,573.964c2.724,0,4.932,2.207,4.932,4.934c0,2.724-2.208,4.931-4.932,4.931
		c-2.725,0-4.936-2.207-4.936-4.931C89.314,576.171,91.525,573.964,94.25,573.964"/>
	<circle fill="none" stroke="#000000" stroke-width="2" stroke-miterlimit="3.864" cx="94.25" cy="578.896" r="4.932"/>
	<rect x="82.906" y="584.815" fill="#FFFFFF" width="46.356" height="4.931"/>
	
		<rect x="82.906" y="584.815" fill="none" stroke="#000000" stroke-width="2" stroke-miterlimit="3.864" width="46.356" height="4.931"/>
	<rect x="130.249" y="579.388" fill="#FFFFFF" width="6.41" height="15.289"/>
	
		<rect x="130.249" y="579.388" fill="none" stroke="#000000" stroke-width="2" stroke-miterlimit="3.864" width="6.41" height="15.289"/>
	<rect x="135.675" y="580.867" fill="#FFFFFF" width="18.246" height="12.329"/>
	
		<rect x="135.675" y="580.867" fill="none" stroke="#000000" stroke-width="2" stroke-miterlimit="3.864" width="18.246" height="12.329"/>
	<rect x="82.417" y="570.019" fill="#FFFFFF" width="41.423" height="4.931"/>
	
		<rect x="82.417" y="570.019" fill="none" stroke="#000000" stroke-width="2" stroke-miterlimit="3.864" width="41.423" height="4.931"/>
	<path fill-rule="evenodd" clip-rule="evenodd" fill="#FFFFFF" d="M66.14,626.239c0,0,42.902-4.44,49.81-5.428
		c6.9-0.982,17.256-15.779,17.256-15.779v-8.875c0,0-15.776,17.754-19.724,19.727c-3.948,1.971-48.823,5.422-48.823,5.422
		L66.14,626.239z"/>
	<path fill="none" stroke="#000000" stroke-width="2" stroke-miterlimit="3.864" d="M66.14,626.239c0,0,42.902-4.44,49.81-5.428
		c6.9-0.982,17.256-15.779,17.256-15.779v-8.875c0,0-15.776,17.754-19.724,19.727c-3.948,1.971-48.823,5.422-48.823,5.422
		L66.14,626.239z"/>
	<path fill="#FFFFFF" d="M77.234,463.006c3.678,0,6.659,2.981,6.659,6.656c0,3.679-2.981,6.66-6.659,6.66
		c-3.675,0-6.656-2.981-6.656-6.66C70.578,465.987,73.56,463.006,77.234,463.006"/>
	<path fill="none" stroke="#000000" stroke-width="2" stroke-miterlimit="3.864" d="M77.234,463.006
		c3.678,0,6.659,2.981,6.659,6.656c0,3.679-2.981,6.66-6.659,6.66c-3.675,0-6.656-2.981-6.656-6.66
		C70.578,465.987,73.56,463.006,77.234,463.006z"/>
	<path fill="#FFFFFF" d="M77.976,574.949c6.537,0,11.836,5.3,11.836,11.836c0,6.54-5.299,11.836-11.836,11.836
		c-6.539,0-11.835-5.296-11.835-11.836C66.14,580.249,71.437,574.949,77.976,574.949"/>
	<path fill="none" stroke="#000000" stroke-width="2" stroke-miterlimit="3.864" d="M61.431,573.207l6.264,0.773l7.89-64.22
		l-6.269-0.767L61.431,573.207z M77.976,574.949c6.537,0,11.836,5.3,11.836,11.836c0,6.54-5.299,11.836-11.836,11.836
		c-6.539,0-11.835-5.296-11.835-11.836C66.14,580.249,71.437,574.949,77.976,574.949z"/>
	
		<rect x="62.709" y="482.18" transform="matrix(-0.9848 -0.1737 0.1737 -0.9848 60.9742 998.1014)" fill="#FFFFFF" width="22.882" height="28.406"/>
	
		<rect x="62.709" y="482.18" transform="matrix(-0.9848 -0.1737 0.1737 -0.9848 60.9742 998.1014)" fill="none" stroke="#000000" stroke-width="2" stroke-miterlimit="3.864" width="22.882" height="28.406"/>
	<polygon fill="#FFFFFF" points="221.089,577.218 161.811,577.218 161.811,577.417 118.907,577.417 118.907,569.529 
		150.469,569.529 161.811,569.529 221.089,569.529 	"/>
	<polygon fill="none" stroke="#000000" stroke-width="2" stroke-miterlimit="3.864" points="221.089,577.218 161.811,577.218 
		161.811,577.417 118.907,577.417 118.907,569.529 150.469,569.529 161.811,569.529 221.089,569.529 	"/>
	<path fill="#FFFFFF" d="M220.69,248.585c0,3.268-2.647,5.918-5.915,5.918H122.46c-3.274,0-5.922-2.65-5.922-5.918V238.33
		c0-3.271,2.647-5.921,5.922-5.921h92.315c3.268,0,5.915,2.65,5.915,5.921V248.585z"/>
	<path fill="none" stroke="#000000" stroke-width="2" stroke-miterlimit="3.864" d="M220.69,248.585
		c0,3.268-2.647,5.918-5.915,5.918H122.46c-3.274,0-5.922-2.65-5.922-5.918V238.33c0-3.271,2.647-5.921,5.922-5.921h92.315
		c3.268,0,5.915,2.65,5.915,5.921V248.585z"/>
	<path fill="#FFFFFF" d="M147.311,172.371c-2.263-0.286-3.945-1.381-3.945-2.689c0-1.305,1.683-2.4,3.945-2.687v-24.082
		c-2.299-0.812-3.945-3.007-3.945-5.58v-3.946c0-2.987,2.21-5.457,5.084-5.859l-6.266-0.062c-3.27,0-5.918-1.585-5.918-3.547
		s2.648-3.553,5.918-3.553h42.606c3.266,0,5.918,1.591,5.918,3.553c0,1.947-2.607,3.523-5.839,3.547
		c1.164,1.083,1.896,2.627,1.896,4.341v18.147c0,2.271-1.279,4.244-3.157,5.238v57.113c1.878,0.595,3.157,1.778,3.157,3.142
		c0,1.363-1.279,2.545-3.157,3.14v7.48c0.979,0.419,1.576,0.986,1.576,1.608c0,0.623-0.598,1.187-1.576,1.609v16.142
		c0,3.272-2.65,5.921-5.918,5.921h-14.203c-3.268,0-5.918-2.648-5.918-5.921v-1.967h-0.396c-3.267,0-5.915-2.655-5.915-5.921
		v-18.612c-2.703-0.33-4.734-1.76-4.734-3.479c0-1.72,2.031-3.154,4.734-3.48v-0.406c-2.302-0.815-3.946-3.007-3.946-5.582V172.371z
		"/>
	<path fill="none" stroke="#000000" stroke-width="2" stroke-miterlimit="3.864" d="M147.311,172.371
		c-2.263-0.286-3.945-1.381-3.945-2.689c0-1.305,1.683-2.4,3.945-2.687v-24.082c-2.299-0.812-3.945-3.007-3.945-5.58v-3.946
		c0-2.987,2.21-5.457,5.084-5.859l-6.266-0.062c-3.27,0-5.918-1.585-5.918-3.547s2.648-3.553,5.918-3.553h42.606
		c3.266,0,5.918,1.591,5.918,3.553c0,1.947-2.607,3.523-5.839,3.547c1.164,1.083,1.896,2.627,1.896,4.341v18.147
		c0,2.271-1.279,4.244-3.157,5.238v57.113c1.878,0.595,3.157,1.778,3.157,3.142c0,1.363-1.279,2.545-3.157,3.14v7.48
		c0.979,0.419,1.576,0.986,1.576,1.608c0,0.623-0.598,1.187-1.576,1.609v16.142c0,3.272-2.65,5.921-5.918,5.921h-14.203
		c-3.268,0-5.918-2.648-5.918-5.921v-1.967h-0.396c-3.267,0-5.915-2.655-5.915-5.921v-18.612c-2.703-0.33-4.734-1.76-4.734-3.479
		c0-1.72,2.031-3.154,4.734-3.48v-0.406c-2.302-0.815-3.946-3.007-3.946-5.582V172.371z"/>
	<path fill="#FFFFFF" d="M97.024,57.639c-0.14-0.502-0.21-1.03-0.21-1.576v-3.944c0-0.695,0.117-1.358,0.333-1.974H95.63
		c-3.268,0-5.917-2.294-5.917-5.129c0-2.833,2.649-5.127,5.917-5.127h52.469v-2.762c0-3.27,2.65-5.92,5.921-5.92h46.553
		c3.268,0,5.915,2.65,5.915,5.92v2.762h20.124c3.266,0,5.915,2.294,5.915,5.127c0,1.468-0.707,2.788-1.85,3.722
		c0.67,0.96,1.062,2.122,1.062,3.381v1.865c1.877,0.993,3.155,2.963,3.155,5.235v39.45c0,3.27-2.647,5.918-5.918,5.918h-5.126v0.394
		c0,3.27-2.65,5.918-5.921,5.918h-23.134c0.415,0.595,0.647,1.264,0.647,1.973c0,2.397-2.649,4.342-5.917,4.342h-48.921
		c-3.268,0-5.915-1.945-5.915-4.342c0-0.709,0.23-1.378,0.642-1.973h-24.706c-3.273,0-5.921-2.648-5.921-5.918v-0.394h-1.975
		c-3.266,0-5.915-2.648-5.915-5.918v-39.45C96.814,58.672,96.885,58.141,97.024,57.639"/>
	<path fill="none" stroke="#000000" stroke-width="2" stroke-miterlimit="3.864" d="M97.024,57.639
		c-0.14-0.502-0.21-1.03-0.21-1.576v-3.944c0-0.695,0.117-1.358,0.333-1.974H95.63c-3.268,0-5.917-2.294-5.917-5.129
		c0-2.833,2.649-5.127,5.917-5.127h52.469v-2.762c0-3.27,2.65-5.92,5.921-5.92h46.553c3.268,0,5.915,2.65,5.915,5.92v2.762h20.124
		c3.266,0,5.915,2.294,5.915,5.127c0,1.468-0.707,2.788-1.85,3.722c0.67,0.96,1.062,2.122,1.062,3.381v1.865
		c1.877,0.993,3.155,2.963,3.155,5.235v39.45c0,3.27-2.647,5.918-5.918,5.918h-5.126v0.394c0,3.27-2.65,5.918-5.921,5.918h-23.134
		c0.415,0.595,0.647,1.264,0.647,1.973c0,2.397-2.649,4.342-5.917,4.342h-48.921c-3.268,0-5.915-1.945-5.915-4.342
		c0-0.709,0.23-1.378,0.642-1.973h-24.706c-3.273,0-5.921-2.648-5.921-5.918v-0.394h-1.975c-3.266,0-5.915-2.648-5.915-5.918v-39.45
		C96.814,58.672,96.885,58.141,97.024,57.639z"/>
	<path fill="#FFFFFF" d="M178.831,613.028c0,3.268-2.646,5.915-5.918,5.915h-7.478c-3.266,0-5.913-2.647-5.913-5.915v-53.935
		c0-3.266,2.647-5.919,5.913-5.919h7.478c3.271,0,5.918,2.653,5.918,5.919V613.028z"/>
	<path fill="none" stroke="#000000" stroke-width="2" stroke-miterlimit="3.864" d="M178.831,613.028
		c0,3.268-2.646,5.915-5.918,5.915h-7.478c-3.266,0-5.913-2.647-5.913-5.915v-53.935c0-3.266,2.647-5.919,5.913-5.919h7.478
		c3.271,0,5.918,2.653,5.918,5.919V613.028z"/>
	<rect x="163.881" y="276.102" fill="#FFFFFF" width="11.342" height="74.96"/>
	
		<rect x="163.881" y="276.102" fill="none" stroke="#000000" stroke-width="2" stroke-miterlimit="3.864" width="11.342" height="74.96"/>
	<rect x="164.375" y="390.514" fill="#FFFFFF" width="10.848" height="75.453"/>
	
		<rect x="164.375" y="390.514" fill="none" stroke="#000000" stroke-width="2" stroke-miterlimit="3.864" width="10.848" height="75.453"/>
	<rect x="163.388" y="267.227" fill="#FFFFFF" width="10.849" height="7.89"/>
	
		<rect x="163.388" y="267.227" fill="none" stroke="#000000" stroke-width="2" stroke-miterlimit="3.864" width="10.849" height="7.89"/>
	<rect x="162.895" y="254.405" fill="#FFFFFF" width="10.848" height="6.411"/>
	
		<rect x="162.895" y="254.405" fill="none" stroke="#000000" stroke-width="2" stroke-miterlimit="3.864" width="10.848" height="6.411"/>
	<rect x="161.907" y="258.842" fill="#FFFFFF" width="14.303" height="2.958"/>
	
		<rect x="161.907" y="258.842" fill="none" stroke="#000000" stroke-width="2" stroke-miterlimit="3.864" width="14.303" height="2.958"/>
	<rect x="163.881" y="380.653" fill="#FFFFFF" width="11.342" height="7.89"/>
	
		<rect x="163.881" y="380.653" fill="none" stroke="#000000" stroke-width="2" stroke-miterlimit="3.864" width="11.342" height="7.89"/>
	<rect x="162.4" y="364.868" fill="#FFFFFF" width="13.81" height="3.453"/>
	
		<rect x="162.4" y="364.868" fill="none" stroke="#000000" stroke-width="2" stroke-miterlimit="3.864" width="13.81" height="3.453"/>
	<rect x="164.375" y="367.829" fill="#FFFFFF" width="9.367" height="2.957"/>
	
		<rect x="164.375" y="367.829" fill="none" stroke="#000000" stroke-width="2" stroke-miterlimit="3.864" width="9.367" height="2.957"/>
	<rect x="153.525" y="360.925" fill="#FFFFFF" width="32.053" height="4.439"/>
	
		<rect x="153.525" y="360.925" fill="none" stroke="#000000" stroke-width="2" stroke-miterlimit="3.864" width="32.053" height="4.439"/>
</g>
</svg>
