<?xml version="1.0" encoding="utf-8"?>
<!-- Generator: Adobe Illustrator 15.1.0, SVG Export Plug-In . SVG Version: 6.00 Build 0)  -->
<!DOCTYPE svg PUBLIC "-//W3C//DTD SVG 1.1//EN" "http://www.w3.org/Graphics/SVG/1.1/DTD/svg11.dtd">
<svg version="1.1" id="Layer_1" xmlns="http://www.w3.org/2000/svg" xmlns:xlink="http://www.w3.org/1999/xlink" x="0px" y="0px"
	 width="348px" height="201px" viewBox="0 0 348 201" enable-background="new 0 0 348 201" xml:space="preserve">
<g>
	<path fill="#004990" d="M42.245,172.911l-26.158-1.133c0,0-2.938,0.117-2.955-3.357c-0.021-3.716,2.683-3.899,3.047-3.899h22.049
		c3.996,0,3.809,3.711,3.809,3.711H54.09v-4.006c0-9.275-10.263-8.942-11.949-8.942H14.122c-1.906,0-12.035,0.754-12.035,13.902
		c0,12.659,12.091,11.926,12.091,11.926l26.06,0.758c0,0,2.905-0.121,2.956,3.642c0.058,4.114-2.858,4.114-2.858,4.114H17.557
		c-3.429,0-3.429-4.396-3.429-4.396H2.087v3.044c0,10.375,10.52,10.571,12.112,10.571h27.941c11.842,0,12.175-9.261,12.175-12.925
		C54.316,172.811,42.245,172.911,42.245,172.911"/>
	<path fill="#004990" d="M162.785,175.622c5.028-2.845,4.511-8.383,4.511-10.778c0-1.496-0.898-9.545-10.094-9.545h-40.077v43.461
		h40.639c9.358,0,9.941-11.296,9.941-11.296C167.976,176.733,162.785,175.622,162.785,175.622 M127.872,164.612h24.559
		c0,0,3.196-0.149,3.244,3.707c0,0,0.188,4.09-3.152,4.09h-24.65V164.612z M153.094,189.651h-25.222V180.6h24.938
		c0,0,3.828-0.098,3.718,4.477C156.413,189.739,153.094,189.651,153.094,189.651"/>
	<path fill="#004990" d="M190.499,155.216l-23.557,43.517h13.078l4.157-7.439h25.207l4.158,7.439h13.555l-23.605-43.517H190.499z
		 M188.761,181.981l7.992-15.217l7.913,15.217H188.761z"/>
	<path fill="#004990" d="M275.937,178.203c4.902-3.032,4.361-10.023,4.361-10.023c0-3.925-1.046-12.904-10.016-12.904H229.87v43.466
		l11.557-0.008v-15.417h23.208c5.183,0,4.801,4.366,4.801,8.684v6.733h11.347v-6.81C280.783,180.23,275.937,178.203,275.937,178.203
		 M264.606,172.952h-23.18v-8.04h23.228c0,0,4.465-0.538,4.465,4.101C269.12,169.013,269.627,172.952,264.606,172.952"/>
	<path fill="#004990" d="M99.381,155.272v28.748c0,4.472-3.428,4.354-3.428,4.354l-20.766,0.012c-4.223,0-4.148-4.288-4.148-4.288
		v-28.826H59.599v33.166c0,10.387,11.413,10.323,11.413,10.323h28.487c0,0,11.292-0.097,11.292-10.333
		c0-2.488,0.062-33.114,0.062-33.114L99.381,155.272z"/>
	<path fill="#004990" d="M342.806,192.369c1.726,0,3.107,1.396,3.107,3.153c0,1.79-1.382,3.189-3.125,3.189
		c-1.725,0-3.133-1.399-3.133-3.189c0-1.758,1.408-3.153,3.133-3.153H342.806z M342.788,192.861c-1.389,0-2.523,1.194-2.523,2.662
		c0,1.509,1.135,2.698,2.541,2.698c1.405,0.013,2.529-1.189,2.529-2.682c0-1.483-1.124-2.678-2.529-2.678H342.788z M342.191,197.364
		h-0.553v-3.519c0.292-0.055,0.569-0.094,0.996-0.094c0.539,0,0.891,0.123,1.095,0.277c0.209,0.145,0.32,0.389,0.32,0.729
		c0,0.459-0.308,0.74-0.693,0.856v0.022c0.324,0.058,0.531,0.346,0.604,0.865c0.079,0.547,0.164,0.759,0.226,0.863h-0.599
		c-0.084-0.104-0.168-0.427-0.238-0.892c-0.084-0.45-0.307-0.618-0.757-0.618h-0.4V197.364z M342.191,195.414h0.413
		c0.46,0,0.854-0.169,0.854-0.605c0-0.307-0.224-0.614-0.854-0.614c-0.187,0-0.305,0.013-0.413,0.029V195.414z"/>
	<path fill="#004990" d="M325.426,155.272v28.748c0,4.472-3.424,4.354-3.424,4.354l-20.771,0.012c-4.224,0-4.144-4.288-4.144-4.288
		v-28.826h-11.442v33.166c0,10.387,11.415,10.323,11.415,10.323h28.484c0,0,11.299-0.097,11.299-10.333
		c0-2.488,0.058-33.114,0.058-33.114L325.426,155.272z"/>
	<path fill="#004990" d="M292.497,68.105c0,35.971-54.471,65.234-121.427,65.234c-66.953,0-121.423-29.263-121.423-65.234
		c0-35.977,54.471-65.249,121.423-65.249C238.026,2.856,292.497,32.129,292.497,68.105 M171.07,2
		c-32.619,0-63.289,6.85-86.364,19.287c-23.161,12.481-35.917,29.11-35.917,46.819c0,17.703,12.756,34.327,35.917,46.808
		c23.076,12.437,53.746,19.288,86.364,19.288c32.617,0,63.292-6.852,86.367-19.288c23.165-12.48,35.919-29.105,35.919-46.808
		c0-17.708-12.754-34.338-35.919-46.819C234.362,8.85,203.688,2,171.07,2"/>
	<path fill="#004990" d="M171.069,2.428c-67.294,0-121.85,29.4-121.85,65.676c0,36.261,54.556,65.665,121.85,65.665
		c67.298,0,121.858-29.404,121.858-65.665C292.927,31.828,238.367,2.428,171.069,2.428 M171.33,126.339
		c-62.128,0-112.492-26.019-112.492-58.115c0-32.093,50.364-58.117,112.492-58.117c62.131,0,112.491,26.024,112.491,58.117
		C283.821,100.32,233.461,126.339,171.33,126.339"/>
	<path fill="#004990" d="M150.999,98.876c0,0-11.736,0.9-11.671,2.186c0.064,1.279,9.684,2.251,11.286,2.437
		c1.601,0.189,7.885,0.905,9.684,1.544c1.791,0.633,3.011,1.148,3.719,3.142c0.708,1.978,2.437,7.89,2.437,7.89
		s0.833,3.264,1.544,3.264c0.701,0,1.534-3.457,1.534-3.457s1.733-7.382,3.018-8.722c1.276-1.354,1.473-1.862,7.177-2.756
		c5.709-0.905,11.356-1.927,15.654-1.927c4.297,0,5.134,0.06,7.754,0.375c2.639,0.33,8.28,1.031,10.521,1.735
		c2.246,0.704,3.018,2.314,3.593,3.792c0.583,1.476,1.863,5.377,1.863,5.377s0.317,1.61,1.089,1.61c0.769,0,1.088-1.671,1.088-1.671
		s2.059-6.536,3.206-7.562c1.158-1.029,1.994-1.998,7.697-2.705c5.709-0.704,9.108-1.406,11.099-1.532
		c1.989-0.124,3.398-0.392,3.398-1.025c0-0.639-0.769-0.891-3.593-1.291c-2.82-0.376-11.225-1.276-15.651-2.234
		c-4.422-0.965-4.676-4.494-5.32-6.226c-0.646-1.732-1.09-4.484-2.116-4.484c-1.035,0-1.283,1.852-1.471,2.436
		c-0.194,0.574-1.221,4.221-1.99,5.441c-0.772,1.218-1.351,2.573-4.368,3.151c-3.013,0.57-8.653,1.802-13.974,1.916
		c-5.322,0.135-8.339-0.246-12.507-0.757c-4.165-0.519-8.012-0.711-10.903-1.994c-2.892-1.284-4.36-5.517-5.133-8.08
		c-0.769-2.566-1.279-3.787-1.731-3.787c-0.45,0-1.283,1.92-1.79,3.589c-0.516,1.673-1.867,6.61-3.851,7.829
		C160.297,97.6,156.962,98.304,150.999,98.876"/>
	<path fill="none" stroke="#004990" stroke-width="0.254" d="M150.999,98.876c0,0-11.736,0.9-11.671,2.186
		c0.064,1.279,9.684,2.251,11.286,2.437c1.601,0.189,7.885,0.905,9.684,1.544c1.791,0.633,3.011,1.148,3.719,3.142
		c0.708,1.978,2.437,7.89,2.437,7.89s0.833,3.264,1.544,3.264c0.701,0,1.534-3.457,1.534-3.457s1.733-7.382,3.018-8.722
		c1.276-1.354,1.473-1.862,7.177-2.756c5.709-0.905,11.356-1.927,15.654-1.927c4.297,0,5.134,0.06,7.754,0.375
		c2.639,0.33,8.28,1.031,10.521,1.735c2.246,0.704,3.018,2.314,3.593,3.792c0.583,1.476,1.863,5.377,1.863,5.377
		s0.317,1.61,1.089,1.61c0.769,0,1.088-1.671,1.088-1.671s2.059-6.536,3.206-7.562c1.158-1.029,1.994-1.998,7.697-2.705
		c5.709-0.704,9.108-1.406,11.099-1.532c1.989-0.124,3.398-0.392,3.398-1.025c0-0.639-0.769-0.891-3.593-1.291
		c-2.82-0.376-11.225-1.276-15.651-2.234c-4.422-0.965-4.676-4.494-5.32-6.226c-0.646-1.732-1.09-4.484-2.116-4.484
		c-1.035,0-1.283,1.852-1.471,2.436c-0.194,0.574-1.221,4.221-1.99,5.441c-0.772,1.218-1.351,2.573-4.368,3.151
		c-3.013,0.57-8.653,1.802-13.974,1.916c-5.322,0.135-8.339-0.246-12.507-0.757c-4.165-0.519-8.012-0.711-10.903-1.994
		c-2.892-1.284-4.36-5.517-5.133-8.08c-0.769-2.566-1.279-3.787-1.731-3.787c-0.45,0-1.283,1.92-1.79,3.589
		c-0.516,1.673-1.867,6.61-3.851,7.829C160.297,97.6,156.962,98.304,150.999,98.876z"/>
	<path fill="#004990" d="M231.26,78.682c-4.293-0.007-9.941,1.044-15.65,1.962c-5.706,0.918-5.899,1.44-7.179,2.808
		c-1.29,1.378-3.014,8.888-3.014,8.888s-0.837,3.525-1.538,3.525c-0.711,0-1.544-3.321-1.544-3.321s-1.729-6.021-2.434-8.043
		c-0.714-2.029-1.919-2.545-3.718-3.201c-1.804-0.656-8.085-1.376-9.69-1.574c-1.598-0.19-11.217-1.177-11.282-2.478
		c-0.062-1.307,11.667-2.221,11.667-2.221c5.967-0.585,9.305-1.314,11.289-2.55c1.992-1.243,3.333-6.274,3.85-7.97
		c0.515-1.696,1.341-3.651,1.792-3.651c0.454,0,0.972,1.225,1.734,3.846c0.775,2.614,2.245,6.933,5.136,8.239
		c2.878,1.286,6.734,1.501,10.899,2.016c0,0,4.975,0.963,10.229,0.846c5.256-0.143,8.533-1.033,10.588-1.354
		c2.045-0.319,5.895-0.962,7.111-3.786c1.223-2.824,2.435-6.921,3.339-6.992c0.89-0.062,2.302,4.488,2.302,4.488
		s1.027,4.43,4.497,5.202c3.457,0.769,8.908,2.042,11.732,2.442c2.82,0.375,3.718,0.633,3.718,1.402
		c0,0.772-3.776,1.154-3.776,1.154s-10.205,1.15-12.25,2.435c-2.058,1.283-3.281,2.186-4.82,9.112
		c-0.578,1.79-0.701,2.627-1.279,2.627c-0.576,0-1.547-2.885-2.699-6.866c-1.15-3.976-2.109-5.063-7.821-5.899
		C236.738,78.931,234.311,78.693,231.26,78.682"/>
	<path fill="none" stroke="#004990" stroke-width="0.254" d="M231.26,78.682c-4.293-0.007-9.941,1.044-15.65,1.962
		c-5.706,0.918-5.899,1.44-7.179,2.808c-1.29,1.378-3.014,8.888-3.014,8.888s-0.837,3.525-1.538,3.525
		c-0.711,0-1.544-3.321-1.544-3.321s-1.729-6.021-2.434-8.043c-0.714-2.029-1.919-2.545-3.718-3.201
		c-1.804-0.656-8.085-1.376-9.69-1.574c-1.598-0.19-11.217-1.177-11.282-2.478c-0.062-1.307,11.667-2.221,11.667-2.221
		c5.967-0.585,9.305-1.314,11.289-2.55c1.992-1.243,3.333-6.274,3.85-7.97c0.515-1.696,1.341-3.651,1.792-3.651
		c0.454,0,0.972,1.225,1.734,3.846c0.775,2.614,2.245,6.933,5.136,8.239c2.878,1.286,6.734,1.501,10.899,2.016
		c0,0,4.975,0.963,10.229,0.846c5.256-0.143,8.533-1.033,10.588-1.354c2.045-0.319,5.895-0.962,7.111-3.786
		c1.223-2.824,2.435-6.921,3.339-6.992c0.89-0.062,2.302,4.488,2.302,4.488s1.027,4.43,4.497,5.202
		c3.457,0.769,8.908,2.042,11.732,2.442c2.82,0.375,3.718,0.633,3.718,1.402c0,0.772-3.776,1.154-3.776,1.154
		s-10.205,1.15-12.25,2.435c-2.058,1.283-3.281,2.186-4.82,9.112c-0.578,1.79-0.701,2.627-1.279,2.627
		c-0.576,0-1.547-2.885-2.699-6.866c-1.15-3.976-2.109-5.063-7.821-5.899C236.738,78.931,234.311,78.693,231.26,78.682z"/>
	<path fill="#004990" d="M85.745,50.68l-14.052,1.926c0,0-2.503,0.099-2.503,1.064c0,0.961,2.123,0.961,2.889,1.051
		c0.772,0.103,15.78,2.123,15.78,2.123s23.955,3.269,26.261,3.657c2.313,0.384,8.756,1.244,11.543,3.75
		c2.793,2.498,5.197,7.888,6.928,15.869c1.732,7.984,3.558,14.813,3.558,14.813s0.291,2.412,1.247,2.412
		c0.969,0,1.256-2.503,1.256-2.503s4.714-18.759,5.864-22.036c1.157-3.272,2.793-10.193,13.28-11.838
		c10.484-1.632,30.012-3.838,30.012-3.838s19.05-2.308,25.597-1.926c6.535,0.384,13.85,1.348,15.682,1.639
		c1.822,0.288,4.77,0.61,6.055,3.81c1.283,3.214,2.695,9.242,2.695,9.242s0.449,1.855,1.151,1.855c0.708,0,1.157-1.734,1.157-1.734
		s2.113-7.31,2.885-9.169c0.769-1.858,2.313-3.461,8.015-4.168c5.716-0.704,11.743-1.987,11.743-1.987s2.881-0.061,2.881-1.157
		c0-1.084-3.081-1.152-3.081-1.152l-13.081-2.11c0,0-5.261-0.389-6.603-3.849c-1.343-3.471-2.761-7.25-2.761-7.25
		s-0.256-1.541-1.028-1.541c-0.769,0-1.151,1.862-1.151,1.862s-1.541,5.32-2.761,7.056c-1.219,1.728-2.695,3.459-9.169,4.099
		c-6.477,0.643-9.874,1.348-12.44,1.416c-2.569,0.064-7.893,0.064-12.125-0.448c-4.229-0.515-31.612-3.853-31.612-3.853
		s-10.966-1.214-14.435-2.374c-3.457-1.147-8.536-1.345-12.443-13.603c-3.907-12.239-4.165-13.137-4.165-13.137
		s-0.326-2.246-1.418-2.246c-1.083,0-1.406,2.503-1.406,2.503s-4.361,14.17-6.416,18.403c-2.052,4.233-3.522,8.208-20.646,10.13
		C93.729,49.438,85.745,50.68,85.745,50.68"/>
	<path fill="none" stroke="#004990" stroke-width="0.254" d="M85.745,50.68l-14.052,1.926c0,0-2.503,0.099-2.503,1.064
		c0,0.961,2.123,0.961,2.889,1.051c0.772,0.103,15.78,2.123,15.78,2.123s23.955,3.269,26.261,3.657
		c2.313,0.384,8.756,1.244,11.543,3.75c2.793,2.498,5.197,7.888,6.928,15.869c1.732,7.984,3.558,14.813,3.558,14.813
		s0.291,2.412,1.247,2.412c0.969,0,1.256-2.503,1.256-2.503s4.714-18.759,5.864-22.036c1.157-3.272,2.793-10.193,13.28-11.838
		c10.484-1.632,30.012-3.838,30.012-3.838s19.05-2.308,25.597-1.926c6.535,0.384,13.85,1.348,15.682,1.639
		c1.822,0.288,4.77,0.61,6.055,3.81c1.283,3.214,2.695,9.242,2.695,9.242s0.449,1.855,1.151,1.855c0.708,0,1.157-1.734,1.157-1.734
		s2.113-7.31,2.885-9.169c0.769-1.858,2.313-3.461,8.015-4.168c5.716-0.704,11.743-1.987,11.743-1.987s2.881-0.061,2.881-1.157
		c0-1.084-3.081-1.152-3.081-1.152l-13.081-2.11c0,0-5.261-0.389-6.603-3.849c-1.343-3.471-2.761-7.25-2.761-7.25
		s-0.256-1.541-1.028-1.541c-0.769,0-1.151,1.862-1.151,1.862s-1.541,5.32-2.761,7.056c-1.219,1.728-2.695,3.459-9.169,4.099
		c-6.477,0.643-9.874,1.348-12.44,1.416c-2.569,0.064-7.893,0.064-12.125-0.448c-4.229-0.515-31.612-3.853-31.612-3.853
		s-10.966-1.214-14.435-2.374c-3.457-1.147-8.536-1.345-12.443-13.603c-3.907-12.239-4.165-13.137-4.165-13.137
		s-0.326-2.246-1.418-2.246c-1.083,0-1.406,2.503-1.406,2.503s-4.361,14.17-6.416,18.403c-2.052,4.233-3.522,8.208-20.646,10.13
		C93.729,49.438,85.745,50.68,85.745,50.68z"/>
</g>
</svg>
