<?xml version="1.0" encoding="UTF-8"?>
<svg width="30" height="10" xmlns="http://www.w3.org/2000/svg" xmlns:xlink="http://www.w3.org/1999/xlink">
 <!-- Created with SVG-edit - http://svg-edit.googlecode.com/ -->
 <defs>
  <symbol id="svg_2" viewBox="000 300 400 400" height="300pt" width="400pt" xmlns:xlink="http://www.w3.org/1999/xlink">
   <path fill-rule="nonzero" fill="rgb(0%,28.627451%,56.470588%)" d="m101.4375,443.511719l2.765633,0l0,-5.546875l0.03125,0l1.64843,5.546875l2.1875,0l1.652344,-5.546875l0.027344,0l0,5.546875l2.773438,0l0,-8.644531l-4.171875,0l-1.359375,5.085938l-0.03125,0l-1.355469,-5.085938l-4.167969,0l0,8.644531zm0,0"/>
   <path fill-rule="evenodd" fill="rgb(0%,28.627451%,56.470588%)" d="m115.765633,437.078125l1.308586,0c0.71875,0 1.386719,0.050781 1.386719,0.835938c0,0.875 -0.800781,0.921875 -1.5625,0.921875l-1.132805,0l0,-1.757813zm-2.929695,6.433594l2.929695,0l0,-2.617188l1.734367,0c2.1875,0 3.730469,-0.980469 3.730469,-3.074219c0,-1.234375 -0.902336,-2.953125 -3.492188,-2.953125l-4.902344,0l0,8.644531zm0,0"/>
   <path fill-rule="evenodd" fill="rgb(0%,28.627451%,56.470588%)" d="m128.085938,443.511719l1.855469,0l0,-4.757813l-3.890625,0l0,1.851563l1.289063,0c-0.144531,0.640625 -0.839844,0.957031 -1.519531,0.957031c-1.78125,0 -2.144531,-1.414063 -2.144531,-2.230469c0,-0.589844 -0.066399,-2.515625 1.945313,-2.515625c0.691406,0 1.277344,0.449219 1.386719,1.078125l2.8125,0c-0.425781,-2.035156 -1.96093,-3.230469 -4.386719,-3.230469c-2.144531,0 -4.691406,1.316406 -4.691406,4.609375c0,2.453125 1.734375,4.441406 4.546875,4.441406c1.03907,0 2.050781,-0.324219 2.703125,-1.089844l0.09375,0.886719zm0,0"/>
  </symbol>
 </defs>
 <g>
  <title>Layer 1</title>
  <use x="-167.697353" y="-134.423177" transform="matrix(1.04653, 0, 0, 1.09239, -0.349513, -0.226238)" xlink:href="#svg_2" id="svg_3"/>
 </g>
</svg>